<svg width="89" height="88" viewBox="0 0 89 88" fill="none" xmlns="http://www.w3.org/2000/svg">
<circle cx="44.5" cy="43.9523" r="43.6047" fill="#D8FBEA"/>
<path d="M40.4818 18.3987C40.9926 17.8375 41.615 17.3892 42.3091 17.0824C43.0032 16.7756 43.7537 16.6172 44.5125 16.6172C45.2714 16.6172 46.0219 16.7756 46.7159 17.0824C47.41 17.3892 48.0324 17.8375 48.5432 18.3987L51.323 21.451C51.8628 22.0435 52.5265 22.5097 53.267 22.8164C54.0075 23.123 54.8066 23.2626 55.6072 23.2252L59.7306 23.0344C60.4883 22.9987 61.2451 23.1215 61.9526 23.3951C62.6601 23.6686 63.3027 24.0868 63.8394 24.623C64.376 25.1591 64.7948 25.8013 65.069 26.5086C65.3433 27.2158 65.4668 27.9725 65.4319 28.7303L65.2384 32.8563C65.2009 33.657 65.3405 34.456 65.6471 35.1965C65.9538 35.937 66.42 36.6008 67.0125 37.1405L70.0649 39.9203C70.626 40.4311 71.0744 41.0535 71.3811 41.7476C71.6879 42.4417 71.8463 43.1922 71.8463 43.951C71.8463 44.7099 71.6879 45.4603 71.3811 46.1544C71.0744 46.8485 70.626 47.4709 70.0649 47.9817L67.0125 50.7615C66.42 51.3012 65.9538 51.965 65.6471 52.7055C65.3405 53.446 65.2009 54.245 65.2384 55.0457L65.4291 59.169C65.4648 59.9267 65.342 60.6836 65.0684 61.3911C64.7949 62.0986 64.3767 62.7412 63.8406 63.2778C63.3045 63.8145 62.6622 64.2333 61.955 64.5075C61.2477 64.7817 60.491 64.9053 59.7333 64.8703L55.6072 64.6768C54.8066 64.6394 54.0075 64.779 53.267 65.0856C52.5265 65.3923 51.8628 65.8585 51.323 66.451L48.5432 69.5033C48.0324 70.0645 47.41 70.5128 46.7159 70.8196C46.0219 71.1264 45.2714 71.2848 44.5125 71.2848C43.7537 71.2848 43.0032 71.1264 42.3091 70.8196C41.615 70.5128 40.9926 70.0645 40.4818 69.5033L37.702 66.451C37.1623 65.8585 36.4985 65.3923 35.758 65.0856C35.0175 64.779 34.2185 64.6394 33.4179 64.6768L29.2945 64.8676C28.5368 64.9033 27.78 64.7805 27.0725 64.5069C26.3649 64.2334 25.7223 63.8152 25.1857 63.2791C24.649 62.7429 24.2302 62.1007 23.956 61.3934C23.6818 60.6862 23.5582 59.9295 23.5932 59.1718L23.7867 55.0457C23.8241 54.245 23.6846 53.446 23.3779 52.7055C23.0712 51.965 22.605 51.3012 22.0125 50.7615L18.9602 47.9817C18.399 47.4709 17.9507 46.8485 17.6439 46.1544C17.3372 45.4603 17.1787 44.7099 17.1787 43.951C17.1787 43.1922 17.3372 42.4417 17.6439 41.7476C17.9507 41.0535 18.399 40.4311 18.9602 39.9203L22.0125 37.1405C22.605 36.6008 23.0712 35.937 23.3779 35.1965C23.6846 34.456 23.8241 33.657 23.7867 32.8563L23.5959 28.733C23.5602 27.9753 23.6831 27.2184 23.9566 26.5109C24.2301 25.8034 24.6484 25.1608 25.1845 24.6242C25.7206 24.0875 26.3628 23.6687 27.0701 23.3945C27.7773 23.1203 28.534 22.9967 29.2918 23.0317L33.4179 23.2252C34.2185 23.2626 35.0175 23.123 35.758 22.8164C36.4985 22.5097 37.1623 22.0435 37.702 21.451L40.4818 18.3987Z" stroke="#01BE62" stroke-width="2.40042"/>
<path d="M36.3236 43.9506L41.7742 49.4012L52.6754 38.5" stroke="#01BE62" stroke-width="2.40042" stroke-linecap="round" stroke-linejoin="round"/>
</svg>
