<svg width="538" height="169" viewBox="0 0 538 169" fill="none" xmlns="http://www.w3.org/2000/svg">
<path d="M349.182 129.401H365.996L366.881 148.757C366.901 149.169 366.914 149.602 366.926 150.059C366.935 150.516 366.943 151.091 366.943 151.789C366.943 152.38 366.926 153.058 366.898 153.825C366.869 154.592 366.828 155.453 366.771 156.399C367.134 155.257 367.583 154.046 368.125 152.768C368.668 151.491 369.309 150.099 370.051 148.598L379.443 129.406H396.885L388.121 167.497H378.101L383.209 144.498C383.474 143.229 383.793 141.891 384.163 140.48C384.535 139.069 384.947 137.566 385.404 135.975H385.061L369.276 167.497H359.284L357.828 135.975H357.342C356.885 138.44 356.506 140.484 356.199 142.099C355.893 143.715 355.693 144.731 355.599 145.142L350.462 167.497H340.5L349.182 129.402V129.401Z" fill="#036EAC"/>
<path d="M429.656 152.347L427.913 160.36C427.534 162.005 427.252 163.356 427.072 164.408C426.893 165.46 426.762 166.488 426.688 167.492H417.982L418.553 163.204C417.391 164.811 415.938 166.031 414.183 166.864C412.433 167.696 410.414 168.108 408.133 168.108C405.089 168.108 402.653 167.341 400.825 165.803C398.997 164.265 398.083 162.229 398.083 159.69C398.083 156.455 399.634 153.937 402.738 152.13C405.839 150.328 410.197 149.421 415.811 149.421C416.476 149.421 417.21 149.446 418.01 149.49C418.81 149.536 419.695 149.601 420.666 149.69C420.686 149.584 420.699 149.462 420.708 149.327C420.716 149.193 420.724 149.009 420.724 148.776C420.724 147.328 420.23 146.234 419.239 145.492C418.247 144.749 416.811 144.378 414.926 144.378C413.176 144.378 411.483 144.558 409.847 144.913C408.211 145.268 406.632 145.807 405.11 146.52L406.338 139.927C407.995 139.372 409.644 138.956 411.291 138.683C412.935 138.405 414.616 138.267 416.33 138.267C420.724 138.267 424.156 139.067 426.62 140.666C429.085 142.265 430.316 144.469 430.316 147.276C430.316 147.921 430.26 148.672 430.145 149.528C430.026 150.389 429.867 151.327 429.655 152.347H429.656ZM419.439 154.596C419.06 154.559 418.665 154.534 418.256 154.514C417.848 154.498 417.244 154.485 416.444 154.485C413.666 154.485 411.548 154.857 410.092 155.599C408.636 156.342 407.909 157.427 407.909 158.854C407.909 159.801 408.268 160.572 408.977 161.159C409.687 161.747 410.618 162.044 411.759 162.044C413.681 162.044 415.35 161.363 416.77 160.008C418.186 158.654 419.076 156.847 419.438 154.595L419.439 154.596Z" fill="#036EAC"/>
<path d="M463.32 139.104L460.979 147.333C460.008 147.085 459.147 146.896 458.396 146.77C457.645 146.643 456.993 146.581 456.442 146.581C454.214 146.581 452.476 147.234 451.219 148.54C449.963 149.845 448.955 152.098 448.191 155.296L445.393 167.491H434.858L440.994 139.156H450.529L449.415 144.329C450.937 142.273 452.48 140.792 454.038 139.878C455.597 138.968 457.367 138.511 459.346 138.511C459.953 138.511 460.582 138.56 461.23 138.658C461.883 138.759 462.577 138.906 463.319 139.102L463.32 139.104Z" fill="#036EAC"/>
<path d="M484.021 129.83L481.88 139.266H489.301L487.759 146.023H480.338L478.111 155.86C477.976 156.415 477.878 156.904 477.813 157.333C477.748 157.761 477.711 158.092 477.711 158.324C477.711 159.361 477.969 160.107 478.482 160.564C478.996 161.021 479.833 161.246 480.996 161.246C481.432 161.246 481.946 161.197 482.538 161.099C483.13 161.001 483.766 160.863 484.452 160.683L482.909 167.44C481.636 167.635 480.526 167.782 479.583 167.88C478.641 167.978 477.829 168.027 477.144 168.027C474.003 168.027 471.583 167.28 469.878 165.787C468.177 164.294 467.323 162.193 467.323 159.475C467.323 159.01 467.348 158.549 467.392 158.096C467.441 157.639 467.51 157.162 467.608 156.664L470.007 146.023H463.871L465.385 139.266H471.521L473.035 132.563L484.022 129.83H484.021Z" fill="#036EAC"/>
<path d="M225.064 49.731H207.022L207.773 97.2999V102.432L225.064 81.7796L224.737 75.0557L225.064 49.731Z" fill="#069321"/>
<path d="M160.555 40.2739C171.755 40.2739 180.507 43.3421 186.81 49.4707C193.114 55.6032 196.263 64.1175 196.263 75.0154C196.263 80.8253 195.37 86.5498 193.587 92.1879C191.8 97.8269 189.352 102.751 186.239 106.965C181.833 112.853 176.509 117.341 170.262 120.433C164.015 123.526 157.117 125.076 149.559 125.076C138.282 125.076 129.482 121.972 123.161 115.766C116.842 109.556 113.679 100.948 113.679 89.9357C113.679 84.1671 114.467 78.601 116.042 73.248C117.617 67.895 119.848 63.2438 122.733 59.2944C127.364 52.9171 132.815 48.1517 139.078 44.9981C145.35 41.8493 152.506 40.2739 160.555 40.2739ZM173.938 73.8768C173.938 67.9527 172.648 63.3792 170.066 60.1517C167.484 56.9242 163.84 55.3085 159.132 55.3085C155.826 55.3085 152.726 56.2752 149.822 58.2135C146.917 60.1517 144.305 62.9991 141.992 66.7575C140.095 69.8333 138.557 73.5629 137.377 77.9491C136.198 82.3354 135.611 86.6151 135.611 90.793C135.611 96.4887 136.92 100.981 139.54 104.261C142.159 107.545 145.75 109.189 150.302 109.189C153.608 109.189 156.663 108.251 159.47 106.37C162.281 104.489 164.974 101.597 167.558 97.6839C169.454 94.6848 170.992 91.0013 172.172 86.6352C173.351 82.2691 173.939 78.0183 173.939 73.8768H173.938Z" fill="#069321"/>
<path d="M129.212 33.9533C138.588 33.9533 146.189 26.3526 146.189 16.9766C146.189 7.60069 138.588 0 129.212 0C119.836 0 112.236 7.60069 112.236 16.9766C112.236 26.3526 119.836 33.9533 129.212 33.9533Z" fill="#FCD806"/>
<path d="M125.846 12.0567C127.364 12.0567 128.882 12.073 130.4 12.0481C131.272 12.0356 132.085 12.1988 132.852 11.3012C133.452 10.5994 134.679 11.0036 135.463 11.3703C136.903 12.0481 138.368 12.1009 139.882 12.0634C140.31 12.051 140.926 11.9002 140.984 12.5617C141.033 13.1617 140.633 13.5898 140.041 13.7617C139.825 13.8231 139.584 13.7818 139.356 13.8068C138.413 13.9085 137.144 13.3412 136.594 14.0967C135.639 15.4023 134.709 16.8625 134.517 18.5444C134.101 22.1962 133.758 25.8596 133.44 29.5239C133.367 30.3601 132.967 30.6461 132.232 30.7028C131.293 30.7719 130.417 30.5684 129.552 30.2045C128.687 29.8369 128.41 29.2781 128.642 28.3517C129.148 26.3482 129.588 24.3246 130.058 22.3134C130.127 22.011 130.352 21.6404 130.001 21.4445C129.659 21.2525 129.434 21.6365 129.202 21.8401C127.713 23.1418 126.244 24.4638 124.742 25.7492C123.428 26.8714 122.209 25.994 121.067 25.4103C120.08 24.9044 119.516 24.1287 119.835 22.8116C120.475 20.1754 121.193 17.5604 121.997 14.9741C122.299 13.9988 122.017 13.7175 121.087 13.803C120.724 13.8356 120.352 13.8193 119.985 13.803C119.459 13.778 118.695 13.9335 118.72 13.1501C118.737 12.4685 119.268 12.0443 120.055 12.0529C121.984 12.0683 123.914 12.0567 125.848 12.0567H125.846ZM123.786 23.2071C124.419 23.3502 124.716 23.0074 125.039 22.779C126.834 21.4974 128.589 20.1639 130.245 18.7028C130.861 18.1642 131.208 17.5642 131.371 16.7367C131.983 13.6685 132.016 13.7214 128.805 13.6609C127.708 13.6407 127.1 14.0074 126.484 14.9338C124.828 17.4385 124.411 20.2868 123.787 23.2081L123.786 23.2071Z" fill="#F70B0B"/>
<path d="M125.736 4.03119C125.789 3.85551 125.814 3.56174 125.957 3.34958C127.201 1.5131 130.286 1.24813 131.763 2.88397C133.375 4.67053 134.545 6.74315 135.471 8.95883C135.684 9.46475 135.802 9.95054 135.165 10.2357C134.52 10.5256 134.161 10.203 133.86 9.64044C133.232 8.4654 132.423 7.41323 131.562 6.39275C130.979 5.69963 130.494 5.65838 129.853 6.23342C129.285 6.74702 128.694 7.13488 127.903 6.60496C126.956 5.97328 125.863 5.48271 125.736 4.03119Z" fill="#F70B0B"/>
<path d="M103.162 44.9529C103.165 51.9091 103.198 58.8662 103.125 65.8185C103.113 66.7526 102.545 67.6828 102.236 68.6169C101.429 68.111 100.441 67.7596 99.8448 67.0703C94.8998 61.317 88.9958 56.8866 82.1453 53.6303C81.3091 53.2348 80.4768 51.909 80.4192 50.9663C80.207 47.6774 80.2685 44.3606 80.3626 41.0601C80.4077 39.5135 79.8077 38.7061 78.4166 38.1186C70.0282 34.557 61.6848 30.8889 53.2713 27.3839C52.296 26.9759 50.8521 26.9922 49.8691 27.4002C41.5334 30.8687 33.2841 34.5321 24.9446 37.9881C23.1043 38.7513 22.7251 39.8447 22.8643 41.5948C23.6275 51.2399 31.3507 58.2172 41.4893 58.2825C48.792 58.3314 56.0957 58.2863 63.3984 58.295C84.3859 58.3075 101.64 75.239 103.04 96.2351C103.424 102.004 101.493 105.224 97.4707 108.716C82.7261 121.511 68.2454 134.612 53.7408 147.684C52.0761 149.182 51.0355 149.162 49.4198 147.709C36.6499 136.212 23.8099 124.784 10.9987 113.331C7.82879 110.495 4.59358 107.725 1.54942 104.759C0.737263 103.968 0.105579 102.568 0.093099 101.438C-0.024981 92.4825 -0.000981966 83.5276 0.068138 74.5756C0.076778 73.678 0.675828 72.7842 1.00223 71.8866C1.78175 72.3109 2.73598 72.5682 3.30718 73.1845C8.33758 78.5989 14.0697 83.0217 20.9731 85.7673C22.5849 86.4076 23.087 87.383 22.8537 88.942C22.4093 91.941 23.5065 94.0377 25.8729 96.07C34.0329 103.08 41.9846 110.334 49.9574 117.56C51.2505 118.731 52.1481 118.498 53.2905 117.47C61.6099 109.988 69.9821 102.558 78.2477 95.0102C78.8678 94.4466 79.2345 92.9702 78.9657 92.1705C76.7952 85.7654 70.0022 81.0326 63.1555 80.975C54.6403 80.9059 46.1088 81.1296 37.607 80.7388C18.0557 79.8374 1.5523 63.5414 0.409904 44.0918C0.00574365 37.2537 0.177584 30.3791 0.00190366 23.5247C-0.0393763 21.9455 0.589419 21.1583 2.0131 20.6524C18.047 14.9692 34.0656 9.23704 50.1158 3.60184C51.0749 3.26296 52.3757 3.33689 53.3549 3.68345C68.9078 9.16313 84.4118 14.7849 99.9936 20.1955C102.523 21.0729 103.294 22.3132 103.229 24.8831C103.046 31.5609 103.156 38.2607 103.161 44.9558L103.162 44.9529Z" fill="#069321"/>
<path d="M403.478 57.5481C403.478 47.1849 399.778 39.5548 392.381 34.6588C384.984 29.7666 373.442 27.3186 357.758 27.3186H324.821L297.824 150.629L292.614 166.096L324.674 163.489L327.391 150.629L339.643 98.2213C343.095 98.3807 346.139 98.4949 348.779 98.5765C351.419 98.6543 353.654 98.6946 355.482 98.6946C370.435 98.6946 382.174 95.0303 390.693 87.7026C399.217 80.3711 403.48 70.3218 403.48 57.5481H403.478ZM368.501 72.8975C364.527 75.8553 358.957 77.3327 351.797 77.3327H343.955L350.149 47.4181H357.052C362.699 47.4181 367.011 48.5442 369.994 50.7964C372.972 53.0485 374.465 56.3202 374.465 60.6085C374.461 65.8472 372.474 69.9436 368.501 72.8975Z" fill="#F70B0B"/>
<path d="M423.213 53.8887L382.205 121.69H401.683L409.981 107.23H437.174L438.982 121.69H457.387L446.208 53.8887H423.213ZM417.109 94.4439L432.487 67.153L435.807 94.4439H417.109H417.109Z" fill="#F70B0B"/>
<path d="M516.262 53.8886L501.663 73.4035C501.206 74.0399 500.525 75.0643 499.616 76.4793C498.706 77.8953 497.694 79.511 496.588 81.3225C496.196 79.797 495.784 78.1728 495.344 76.4553C494.903 74.7379 494.651 73.7827 494.584 73.5916L488.093 53.8848H467.88L484.771 96.0642L479.598 121.687H498.003L503.568 96.0642L537.889 53.8848H516.261V53.8886H516.262Z" fill="#F70B0B"/>
<path d="M310.56 14.2598L285.892 39.3235H292.514C291.457 39.6499 287.968 49.2009 287.968 49.2009L273.574 88.0386C272.122 91.9679 270.963 95.2559 270.102 97.8959C269.241 100.54 268.522 103 267.947 105.276H267.238C267.443 102.898 267.61 100.299 267.744 97.4755C267.878 94.6521 267.98 91.3554 268.05 87.5942L268.556 49.2009H244.985L228.714 89.5765C228.036 91.3593 227.262 93.6153 226.384 96.3369C225.956 97.6665 225.515 99.0585 225.062 100.506L224.495 102.428L225.066 81.7795L207.776 102.428L207.894 119.597L219.424 119.598H232.109L247.923 78.7285C248.869 76.2844 249.807 73.7346 250.734 71.0745C251.664 68.4181 252.652 65.4518 253.7 62.1839H254.561C254.292 65.2233 254.079 68.4182 253.929 71.7676C253.778 75.1209 253.667 78.6633 253.598 82.3919L252.991 119.598H276.561L306.973 49.2009L310.506 39.3235H316.528L310.559 14.2598H310.56ZM292.624 39.3235H309.996C307.157 39.3926 293.428 39.7027 292.624 39.3235Z" fill="#069321"/>
</svg>
