<svg width="87" height="40" viewBox="0 0 87 40" fill="none" xmlns="http://www.w3.org/2000/svg">
<path d="M66.6064 23.5373H64.1357L66.6064 17H68.3492L71.72 23.5373H69.16L67.5225 18.4939H67.4714L66.6064 23.5373ZM65.7382 20.9677H69.2366V22.0466H65.7382V20.9677Z" fill="white"/>
<path d="M60.5599 25.9002H61.3682L62.2218 27.9829H62.2581L63.1118 25.9002H63.92V29H63.2843V26.9824H63.2586L62.4564 28.9849H62.0235L61.2214 26.9749H61.1956V29H60.5599V25.9002ZM64.9943 29H64.292L65.3621 25.9002H66.2066L67.2752 29H66.5729L65.7965 26.6086H65.7722L64.9943 29ZM64.9504 27.7816H66.6092V28.2932H64.9504V27.7816ZM67.6483 29V25.9002H68.8712C69.1053 25.9002 69.3051 25.9421 69.4706 26.0259C69.6371 26.1086 69.7637 26.2262 69.8505 26.3785C69.9383 26.5299 69.9822 26.708 69.9822 26.9128C69.9822 27.1187 69.9378 27.2957 69.849 27.4441C69.7602 27.5914 69.6316 27.7044 69.463 27.7831C69.2955 27.8618 69.0927 27.9012 68.8546 27.9012H68.0358V27.3744H68.7487C68.8738 27.3744 68.9777 27.3573 69.0604 27.323C69.1432 27.2887 69.2047 27.2372 69.2451 27.1686C69.2865 27.1 69.3072 27.0147 69.3072 26.9128C69.3072 26.8099 69.2865 26.7231 69.2451 26.6525C69.2047 26.5818 69.1427 26.5284 69.0589 26.492C68.9762 26.4547 68.8718 26.436 68.7456 26.436H68.3037V29H67.6483ZM69.3223 27.5894L70.0927 29H69.3692L68.6155 27.5894H69.3223ZM70.3273 26.4406V25.9002H72.8731V26.4406H71.9241V29H71.2763V26.4406H70.3273Z" fill="white"/>
<path d="M64.8713 29.6329L63.1557 32.8706L62.6666 30.8798L61.0008 29.8761L64.8713 29.6329Z" fill="white"/>
<path d="M64.9669 29.5904L63.2977 32.7406L62.8219 30.8036L61.201 29.827L64.9669 29.5904Z" fill="white"/>
<path d="M36.6277 22.737C36.6277 24.123 36.365 25.302 35.8396 26.2742C35.3183 27.2464 34.6068 27.989 33.7049 28.502C32.8071 29.0109 31.7977 29.2653 30.6766 29.2653C29.5472 29.2653 28.5336 29.0088 27.6358 28.4958C26.7381 27.9828 26.0286 27.2402 25.5073 26.268C24.9861 25.2958 24.7254 24.1188 24.7254 22.737C24.7254 21.3511 24.9861 20.1721 25.5073 19.1999C26.0286 18.2277 26.7381 17.4871 27.6358 16.9783C28.5336 16.4653 29.5472 16.2088 30.6766 16.2088C31.7977 16.2088 32.8071 16.4653 33.7049 16.9783C34.6068 17.4871 35.3183 18.2277 35.8396 19.1999C36.365 20.1721 36.6277 21.3511 36.6277 22.737ZM33.9035 22.737C33.9035 21.8393 33.769 21.0822 33.5001 20.4658C33.2353 19.8494 32.8609 19.3819 32.3769 19.0634C31.8929 18.7448 31.3261 18.5855 30.6766 18.5855C30.027 18.5855 29.4603 18.7448 28.9762 19.0634C28.4922 19.3819 28.1157 19.8494 27.8468 20.4658C27.5821 21.0822 27.4497 21.8393 27.4497 22.737C27.4497 23.6348 27.5821 24.3919 27.8468 25.0083C28.1157 25.6247 28.4922 26.0922 28.9762 26.4107C29.4603 26.7293 30.027 26.8886 30.6766 26.8886C31.3261 26.8886 31.8929 26.7293 32.3769 26.4107C32.8609 26.0922 33.2353 25.6247 33.5001 25.0083C33.769 24.3919 33.9035 23.6348 33.9035 22.737ZM41.2311 29.0915L37.8219 17.1769H40.5737L42.5459 25.4555H42.6448L44.8206 17.1769H47.1768L49.3468 25.4729H49.4515L51.4237 17.1769H54.1755L50.7663 29.0915H48.3112L46.0423 21.3016H45.9492L43.6861 29.0915H41.2311ZM55.5237 29.0915V17.1769H60.2245C61.1281 17.1769 61.898 17.3495 62.5341 17.6946C63.1702 18.0359 63.655 18.5111 63.9885 19.12C64.3259 19.725 64.4947 20.4231 64.4947 21.2144C64.4947 22.0056 64.324 22.7037 63.9827 23.3087C63.6414 23.9138 63.1469 24.385 62.4992 24.7224C61.8554 25.0599 61.0758 25.2286 60.1605 25.2286H57.1643V23.2098H59.7532C60.238 23.2098 60.6375 23.1264 60.9517 22.9597C61.2697 22.789 61.5063 22.5544 61.6614 22.2557C61.8204 21.9532 61.9 21.6061 61.9 21.2144C61.9 20.8188 61.8204 20.4736 61.6614 20.1788C61.5063 19.8802 61.2697 19.6494 60.9517 19.4865C60.6336 19.3197 60.2303 19.2363 59.7416 19.2363H58.0428V29.0915H55.5237ZM69.2245 17.1769H72.0461L74.7629 22.3081H74.8793L77.5962 17.1769H80.4177L76.0719 24.8795V29.0915H73.5703V24.8795L69.2245 17.1769Z" fill="white"/>
<path d="M25.8773 26.7158L26.4125 25.3365C36.4969 31.9822 57.7033 34.8073 64.9719 29.4997C56.8842 37.2142 31.555 32.4118 25.8773 26.7158Z" fill="white"/>
<path d="M1.46421 38.3857C1.46421 38.3402 1.45717 38.2996 1.44309 38.2638C1.43009 38.227 1.40571 38.194 1.36996 38.1647C1.33529 38.1344 1.28599 38.1051 1.22207 38.0769C1.15924 38.0477 1.07798 38.0174 0.978309 37.9859C0.867802 37.9513 0.764879 37.9123 0.66954 37.8689C0.574201 37.8256 0.490238 37.7752 0.41765 37.7178C0.346146 37.6604 0.290351 37.5943 0.250265 37.5195C0.210179 37.4437 0.190136 37.3559 0.190136 37.2563C0.190136 37.1588 0.210721 37.0699 0.25189 36.9898C0.294143 36.9096 0.35373 36.8408 0.430651 36.7834C0.507572 36.7249 0.598036 36.6799 0.702042 36.6485C0.807132 36.6171 0.923056 36.6014 1.04981 36.6014C1.22532 36.6014 1.377 36.6333 1.50484 36.6972C1.63377 36.7612 1.73344 36.8478 1.80386 36.9573C1.87428 37.0667 1.90949 37.1896 1.90949 37.3261H1.46421C1.46421 37.2525 1.4485 37.1875 1.41709 37.1311C1.38675 37.0748 1.34016 37.0304 1.27733 36.9979C1.21557 36.9654 1.13757 36.9491 1.04331 36.9491C0.952307 36.9491 0.876469 36.9627 0.815799 36.9898C0.756212 37.0168 0.711251 37.0537 0.680916 37.1003C0.651664 37.1468 0.637038 37.1988 0.637038 37.2563C0.637038 37.2996 0.647331 37.3386 0.667915 37.3733C0.6885 37.4069 0.719377 37.4388 0.760546 37.4692C0.801715 37.4984 0.852635 37.526 0.913305 37.552C0.975059 37.577 1.04656 37.6019 1.12782 37.6268C1.25783 37.6658 1.37158 37.7091 1.46909 37.7568C1.56768 37.8045 1.64947 37.8586 1.71448 37.9193C1.78057 37.98 1.82986 38.0482 1.86236 38.1241C1.89595 38.1999 1.91274 38.286 1.91274 38.3825C1.91274 38.4843 1.8927 38.5753 1.85261 38.6555C1.81253 38.7357 1.75511 38.8039 1.68035 38.8602C1.6056 38.9166 1.51567 38.9594 1.41058 38.9886C1.30658 39.0179 1.19011 39.0325 1.06119 39.0325C0.946349 39.0325 0.832592 39.0173 0.719918 38.987C0.608328 38.9556 0.507031 38.909 0.416025 38.8472C0.32502 38.7844 0.252432 38.7053 0.198262 38.61C0.144092 38.5136 0.117007 38.4009 0.117007 38.272H0.565534C0.565534 38.3467 0.577451 38.4106 0.601286 38.4637C0.626204 38.5157 0.660873 38.5585 0.705292 38.5921C0.750795 38.6246 0.803882 38.6484 0.864552 38.6636C0.925222 38.6788 0.990768 38.6864 1.06119 38.6864C1.15219 38.6864 1.22695 38.6739 1.28545 38.649C1.34504 38.623 1.38946 38.5872 1.41871 38.5417C1.44905 38.4962 1.46421 38.4442 1.46421 38.3857ZM3.25104 36.6339H3.63781L4.2846 38.415L4.92977 36.6339H5.31817L4.43899 39H4.12859L3.25104 36.6339ZM3.05603 36.6339H3.43468L3.50293 38.2703V39H3.05603V36.6339ZM5.1329 36.6339H5.51318V39H5.06627V38.2703L5.1329 36.6339ZM7.73716 36.993L7.06274 39H6.58984L7.47389 36.6339H7.77616L7.73716 36.993ZM8.30106 39L7.6234 36.993L7.58277 36.6339H7.88666L8.77559 39H8.30106ZM8.27019 38.1208V38.4735H7.00099V38.1208H8.27019ZM9.81813 36.6339H10.6778C10.8576 36.6339 11.012 36.6609 11.141 36.7151C11.2699 36.7693 11.369 36.8495 11.4383 36.9556C11.5077 37.0618 11.5424 37.1923 11.5424 37.3473C11.5424 37.4697 11.5207 37.5759 11.4774 37.6658C11.434 37.7557 11.3728 37.831 11.2937 37.8917C11.2157 37.9524 11.1236 38 11.0174 38.0347L10.8777 38.1062H10.1188L10.1155 37.7535H10.6827C10.7748 37.7535 10.8511 37.7373 10.9118 37.7048C10.9725 37.6723 11.018 37.6273 11.0483 37.5699C11.0797 37.5125 11.0955 37.4469 11.0955 37.3733C11.0955 37.2942 11.0803 37.2259 11.05 37.1685C11.0196 37.11 10.9736 37.0651 10.9118 37.0336C10.8501 37.0022 10.7721 36.9865 10.6778 36.9865H10.265V39H9.81813V36.6339ZM11.154 39L10.6063 37.9404L11.0792 37.9388L11.6334 38.9772V39H11.154ZM13.6445 36.6339V39H13.1992V36.6339H13.6445ZM14.379 36.6339V36.9865H12.4728V36.6339H14.379ZM18.2598 38.3857C18.2598 38.3402 18.2528 38.2996 18.2387 38.2638C18.2257 38.227 18.2013 38.194 18.1655 38.1647C18.1309 38.1344 18.0816 38.1051 18.0177 38.0769C17.9548 38.0477 17.8736 38.0174 17.7739 37.9859C17.6634 37.9513 17.5605 37.9123 17.4651 37.8689C17.3698 37.8256 17.2858 37.7752 17.2132 37.7178C17.1417 37.6604 17.0859 37.5943 17.0458 37.5195C17.0058 37.4437 16.9857 37.3559 16.9857 37.2563C16.9857 37.1588 17.0063 37.0699 17.0475 36.9898C17.0897 36.9096 17.1493 36.8408 17.2262 36.7834C17.3032 36.7249 17.3936 36.6799 17.4976 36.6485C17.6027 36.6171 17.7186 36.6014 17.8454 36.6014C18.0209 36.6014 18.1726 36.6333 18.3004 36.6972C18.4293 36.7612 18.529 36.8478 18.5994 36.9573C18.6699 37.0667 18.7051 37.1896 18.7051 37.3261H18.2598C18.2598 37.2525 18.2441 37.1875 18.2127 37.1311C18.1823 37.0748 18.1357 37.0304 18.0729 36.9979C18.0112 36.9654 17.9332 36.9491 17.8389 36.9491C17.7479 36.9491 17.6721 36.9627 17.6114 36.9898C17.5518 37.0168 17.5068 37.0537 17.4765 37.1003C17.4472 37.1468 17.4326 37.1988 17.4326 37.2563C17.4326 37.2996 17.4429 37.3386 17.4635 37.3733C17.4841 37.4069 17.515 37.4388 17.5561 37.4692C17.5973 37.4984 17.6482 37.526 17.7089 37.552C17.7706 37.577 17.8421 37.6019 17.9234 37.6268C18.0534 37.6658 18.1672 37.7091 18.2647 37.7568C18.3633 37.8045 18.4451 37.8586 18.5101 37.9193C18.5761 37.98 18.6254 38.0482 18.6579 38.1241C18.6915 38.1999 18.7083 38.286 18.7083 38.3825C18.7083 38.4843 18.6883 38.5753 18.6482 38.6555C18.6081 38.7357 18.5507 38.8039 18.4759 38.8602C18.4012 38.9166 18.3113 38.9594 18.2062 38.9886C18.1022 39.0179 17.9857 39.0325 17.8568 39.0325C17.7419 39.0325 17.6282 39.0173 17.5155 38.987C17.4039 38.9556 17.3026 38.909 17.2116 38.8472C17.1206 38.7844 17.048 38.7053 16.9938 38.61C16.9397 38.5136 16.9126 38.4009 16.9126 38.272H17.3611C17.3611 38.3467 17.373 38.4106 17.3969 38.4637C17.4218 38.5157 17.4565 38.5585 17.5009 38.5921C17.5464 38.6246 17.5995 38.6484 17.6601 38.6636C17.7208 38.6788 17.7863 38.6864 17.8568 38.6864C17.9478 38.6864 18.0225 38.6739 18.081 38.649C18.1406 38.623 18.185 38.5872 18.2143 38.5417C18.2446 38.4962 18.2598 38.4442 18.2598 38.3857ZM21.4215 37.6105V37.9616H20.1766V37.6105H21.4215ZM20.2985 36.6339V39H19.8516V36.6339H20.2985ZM21.753 36.6339V39H21.3061V36.6339H21.753ZM24.9228 37.7568V37.8787C24.9228 38.0574 24.8989 38.2183 24.8513 38.3613C24.8036 38.5033 24.7359 38.6241 24.6481 38.7237C24.5604 38.8234 24.4558 38.8998 24.3345 38.9529C24.2131 39.006 24.0783 39.0325 23.9298 39.0325C23.7836 39.0325 23.6492 39.006 23.5268 38.9529C23.4055 38.8998 23.3004 38.8234 23.2115 38.7237C23.1227 38.6241 23.0539 38.5033 23.0051 38.3613C22.9564 38.2183 22.932 38.0574 22.932 37.8787V37.7568C22.932 37.577 22.9564 37.4161 23.0051 37.2741C23.0539 37.1322 23.1222 37.0114 23.2099 36.9117C23.2977 36.811 23.4022 36.7341 23.5236 36.681C23.646 36.6279 23.7803 36.6014 23.9266 36.6014C24.075 36.6014 24.2099 36.6279 24.3312 36.681C24.4526 36.7341 24.5571 36.811 24.6449 36.9117C24.7337 37.0114 24.802 37.1322 24.8496 37.2741C24.8984 37.4161 24.9228 37.577 24.9228 37.7568ZM24.471 37.8787V37.7535C24.471 37.6246 24.4591 37.5114 24.4352 37.4139C24.4114 37.3153 24.3762 37.2324 24.3296 37.1653C24.283 37.0981 24.2256 37.0477 24.1573 37.0141C24.0891 36.9795 24.0122 36.9621 23.9266 36.9621C23.8399 36.9621 23.763 36.9795 23.6958 37.0141C23.6297 37.0477 23.5734 37.0981 23.5268 37.1653C23.4802 37.2324 23.4445 37.3153 23.4195 37.4139C23.3957 37.5114 23.3838 37.6246 23.3838 37.7535V37.8787C23.3838 38.0065 23.3957 38.1197 23.4195 38.2183C23.4445 38.3169 23.4802 38.4003 23.5268 38.4686C23.5745 38.5358 23.6319 38.5867 23.6991 38.6214C23.7662 38.656 23.8432 38.6734 23.9298 38.6734C24.0165 38.6734 24.0934 38.656 24.1606 38.6214C24.2278 38.5867 24.2841 38.5358 24.3296 38.4686C24.3762 38.4003 24.4114 38.3169 24.4352 38.2183C24.4591 38.1197 24.471 38.0065 24.471 37.8787ZM27.0102 38.1371H26.4008V37.7861H27.0102C27.1099 37.7861 27.1906 37.7698 27.2524 37.7373C27.3152 37.7037 27.3613 37.6582 27.3905 37.6008C27.4198 37.5423 27.4344 37.4757 27.4344 37.4009C27.4344 37.3283 27.4198 37.2606 27.3905 37.1978C27.3613 37.1349 27.3152 37.084 27.2524 37.045C27.1906 37.006 27.1099 36.9865 27.0102 36.9865H26.5471V39H26.1002V36.6339H27.0102C27.1944 36.6339 27.3515 36.6669 27.4815 36.733C27.6126 36.798 27.7123 36.8885 27.7805 37.0044C27.8499 37.1192 27.8845 37.2503 27.8845 37.3977C27.8845 37.5504 27.8499 37.682 27.7805 37.7926C27.7123 37.9031 27.6126 37.9881 27.4815 38.0477C27.3515 38.1073 27.1944 38.1371 27.0102 38.1371ZM29.9444 38.1371H29.335V37.7861H29.9444C30.044 37.7861 30.1248 37.7698 30.1865 37.7373C30.2494 37.7037 30.2954 37.6582 30.3246 37.6008C30.3539 37.5423 30.3685 37.4757 30.3685 37.4009C30.3685 37.3283 30.3539 37.2606 30.3246 37.1978C30.2954 37.1349 30.2494 37.084 30.1865 37.045C30.1248 37.006 30.044 36.9865 29.9444 36.9865H29.4812V39H29.0343V36.6339H29.9444C30.1286 36.6339 30.2856 36.6669 30.4157 36.733C30.5467 36.798 30.6464 36.8885 30.7147 37.0044C30.784 37.1192 30.8187 37.2503 30.8187 37.3977C30.8187 37.5504 30.784 37.682 30.7147 37.7926C30.6464 37.9031 30.5467 37.9881 30.4157 38.0477C30.2856 38.1073 30.1286 38.1371 29.9444 38.1371ZM32.4446 36.6339V39H31.9977V36.6339H32.4446ZM35.6274 36.6339V39H35.1789L34.1729 37.3587V39H33.726V36.6339H34.1729L35.1821 38.2768V36.6339H35.6274ZM38.7273 37.7763V38.6977C38.6926 38.7422 38.6379 38.7904 38.5632 38.8424C38.4895 38.8944 38.3931 38.9393 38.2739 38.9772C38.1547 39.0141 38.0085 39.0325 37.8351 39.0325C37.6845 39.0325 37.547 39.0076 37.4224 38.9577C37.2978 38.9068 37.1905 38.8326 37.1006 38.7351C37.0107 38.6376 36.9413 38.5184 36.8926 38.3776C36.8438 38.2367 36.8195 38.0759 36.8195 37.8949V37.7389C36.8195 37.558 36.8422 37.3971 36.8877 37.2563C36.9343 37.1154 37.0004 36.9963 37.086 36.8987C37.1726 36.8012 37.2761 36.727 37.3964 36.6761C37.5177 36.6252 37.6531 36.5997 37.8026 36.5997C38.0031 36.5997 38.1677 36.6328 38.2967 36.6989C38.4267 36.7649 38.5263 36.856 38.5957 36.9719C38.665 37.0867 38.7084 37.2189 38.7257 37.3684H38.2902C38.2782 37.2861 38.2544 37.214 38.2187 37.1523C38.1829 37.0894 38.132 37.0407 38.0659 37.006C38.0009 36.9703 37.9164 36.9524 37.8124 36.9524C37.7246 36.9524 37.6472 36.9697 37.58 37.0044C37.5128 37.039 37.4565 37.0894 37.411 37.1555C37.3655 37.2216 37.3308 37.3034 37.307 37.4009C37.2842 37.4984 37.2729 37.61 37.2729 37.7357V37.8949C37.2729 38.0217 37.2859 38.1344 37.3119 38.233C37.3379 38.3305 37.3752 38.4128 37.424 38.48C37.4738 38.5461 37.535 38.5964 37.6076 38.6311C37.6813 38.6647 37.7647 38.6815 37.8579 38.6815C37.9424 38.6815 38.0123 38.6744 38.0675 38.6604C38.1239 38.6452 38.1688 38.6273 38.2024 38.6067C38.236 38.5861 38.262 38.5661 38.2804 38.5466V38.1029H37.8108V37.7763H38.7273ZM42.5106 36.6339V39H42.0653V36.6339H42.5106ZM43.2452 36.6339V36.9865H41.3389V36.6339H43.2452ZM44.3413 36.6339H45.201C45.3808 36.6339 45.5352 36.6609 45.6641 36.7151C45.7931 36.7693 45.8922 36.8495 45.9615 36.9556C46.0309 37.0618 46.0655 37.1923 46.0655 37.3473C46.0655 37.4697 46.0439 37.5759 46.0005 37.6658C45.9572 37.7557 45.896 37.831 45.8169 37.8917C45.7389 37.9524 45.6468 38 45.5406 38.0347L45.4009 38.1062H44.642L44.6387 37.7535H45.2059C45.298 37.7535 45.3743 37.7373 45.435 37.7048C45.4957 37.6723 45.5412 37.6273 45.5715 37.5699C45.6029 37.5125 45.6186 37.4469 45.6186 37.3733C45.6186 37.2942 45.6035 37.2259 45.5731 37.1685C45.5428 37.11 45.4968 37.0651 45.435 37.0336C45.3733 37.0022 45.2952 36.9865 45.201 36.9865H44.7882V39H44.3413V36.6339ZM45.6771 39L45.1295 37.9404L45.6024 37.9388L46.1565 38.9772V39H45.6771ZM48.5723 36.6339H49.0192V38.2053C49.0192 38.3863 48.9802 38.5385 48.9022 38.662C48.8242 38.7844 48.718 38.877 48.5837 38.9399C48.4493 39.0016 48.2966 39.0325 48.1254 39.0325C47.952 39.0325 47.7977 39.0016 47.6622 38.9399C47.5268 38.877 47.4206 38.7844 47.3437 38.662C47.2668 38.5385 47.2283 38.3863 47.2283 38.2053V36.6339H47.6752V38.2053C47.6752 38.3158 47.6937 38.4063 47.7305 38.4767C47.7673 38.5461 47.8193 38.5975 47.8865 38.6311C47.9537 38.6647 48.0333 38.6815 48.1254 38.6815C48.2186 38.6815 48.2982 38.6647 48.3643 38.6311C48.4314 38.5975 48.4829 38.5461 48.5187 38.4767C48.5544 38.4063 48.5723 38.3158 48.5723 38.2053V36.6339ZM51.4804 38.3857C51.4804 38.3402 51.4734 38.2996 51.4593 38.2638C51.4463 38.227 51.4219 38.194 51.3862 38.1647C51.3515 38.1344 51.3022 38.1051 51.2383 38.0769C51.1755 38.0477 51.0942 38.0174 50.9945 37.9859C50.884 37.9513 50.7811 37.9123 50.6858 37.8689C50.5904 37.8256 50.5065 37.7752 50.4339 37.7178C50.3624 37.6604 50.3066 37.5943 50.2665 37.5195C50.2264 37.4437 50.2064 37.3559 50.2064 37.2563C50.2064 37.1588 50.2269 37.0699 50.2681 36.9898C50.3104 36.9096 50.3699 36.8408 50.4469 36.7834C50.5238 36.7249 50.6143 36.6799 50.7183 36.6485C50.8234 36.6171 50.9393 36.6014 51.066 36.6014C51.2415 36.6014 51.3932 36.6333 51.5211 36.6972C51.65 36.7612 51.7497 36.8478 51.8201 36.9573C51.8905 37.0667 51.9257 37.1896 51.9257 37.3261H51.4804C51.4804 37.2525 51.4647 37.1875 51.4333 37.1311C51.403 37.0748 51.3564 37.0304 51.2935 36.9979C51.2318 36.9654 51.1538 36.9491 51.0595 36.9491C50.9685 36.9491 50.8927 36.9627 50.832 36.9898C50.7724 37.0168 50.7275 37.0537 50.6971 37.1003C50.6679 37.1468 50.6533 37.1988 50.6533 37.2563C50.6533 37.2996 50.6636 37.3386 50.6841 37.3733C50.7047 37.4069 50.7356 37.4388 50.7768 37.4692C50.8179 37.4984 50.8689 37.526 50.9295 37.552C50.9913 37.577 51.0628 37.6019 51.144 37.6268C51.274 37.6658 51.3878 37.7091 51.4853 37.7568C51.5839 37.8045 51.6657 37.8586 51.7307 37.9193C51.7968 37.98 51.8461 38.0482 51.8786 38.1241C51.9122 38.1999 51.929 38.286 51.929 38.3825C51.929 38.4843 51.9089 38.5753 51.8688 38.6555C51.8287 38.7357 51.7713 38.8039 51.6966 38.8602C51.6218 38.9166 51.5319 38.9594 51.4268 38.9886C51.3228 39.0179 51.2063 39.0325 51.0774 39.0325C50.9626 39.0325 50.8488 39.0173 50.7361 38.987C50.6245 38.9556 50.5233 38.909 50.4322 38.8472C50.3412 38.7844 50.2687 38.7053 50.2145 38.61C50.1603 38.5136 50.1332 38.4009 50.1332 38.272H50.5818C50.5818 38.3467 50.5937 38.4106 50.6175 38.4637C50.6424 38.5157 50.6771 38.5585 50.7215 38.5921C50.767 38.6246 50.8201 38.6484 50.8808 38.6636C50.9414 38.6788 51.007 38.6864 51.0774 38.6864C51.1684 38.6864 51.2432 38.6739 51.3017 38.649C51.3613 38.623 51.4057 38.5872 51.4349 38.5417C51.4653 38.4962 51.4804 38.4442 51.4804 38.3857ZM54.0879 36.6339V39H53.6427V36.6339H54.0879ZM54.8225 36.6339V36.9865H52.9162V36.6339H54.8225ZM57.4869 38.649V39H56.229V38.649H57.4869ZM56.3655 36.6339V39H55.9186V36.6339H56.3655ZM57.3227 37.6105V37.9534H56.229V37.6105H57.3227ZM57.482 36.6339V36.9865H56.229V36.6339H57.482ZM59.3029 39H58.7927L58.7959 38.649H59.3029C59.4405 38.649 59.5559 38.6186 59.6491 38.558C59.7423 38.4962 59.8127 38.4079 59.8603 38.2931C59.908 38.1772 59.9319 38.0385 59.9319 37.8771V37.7552C59.9319 37.6306 59.9183 37.5206 59.8912 37.4253C59.8641 37.3299 59.8241 37.2498 59.771 37.1848C59.719 37.1198 59.6545 37.0705 59.5776 37.0369C59.5007 37.0033 59.4124 36.9865 59.3127 36.9865H58.7829V36.6339H59.3127C59.4709 36.6339 59.615 36.6604 59.745 36.7135C59.8761 36.7666 59.9893 36.843 60.0846 36.9426C60.181 37.0412 60.2547 37.1593 60.3056 37.2969C60.3576 37.4345 60.3836 37.5883 60.3836 37.7584V37.8771C60.3836 38.0461 60.3576 38.1999 60.3056 38.3386C60.2547 38.4762 60.181 38.5943 60.0846 38.6929C59.9893 38.7914 59.8755 38.8673 59.7433 38.9204C59.6112 38.9735 59.4644 39 59.3029 39ZM59.0429 36.6339V39H58.596V36.6339H59.0429ZM64.4286 38.3857C64.4286 38.3402 64.4215 38.2996 64.4074 38.2638C64.3944 38.227 64.3701 38.194 64.3343 38.1647C64.2996 38.1344 64.2503 38.1051 64.1864 38.0769C64.1236 38.0477 64.0423 38.0174 63.9427 37.9859C63.8322 37.9513 63.7292 37.9123 63.6339 37.8689C63.5386 37.8256 63.4546 37.7752 63.382 37.7178C63.3105 37.6604 63.2547 37.5943 63.2146 37.5195C63.1745 37.4437 63.1545 37.3559 63.1545 37.2563C63.1545 37.1588 63.1751 37.0699 63.2162 36.9898C63.2585 36.9096 63.3181 36.8408 63.395 36.7834C63.4719 36.7249 63.5624 36.6799 63.6664 36.6485C63.7715 36.6171 63.8874 36.6014 64.0142 36.6014C64.1897 36.6014 64.3414 36.6333 64.4692 36.6972C64.5981 36.7612 64.6978 36.8478 64.7682 36.9573C64.8386 37.0667 64.8738 37.1896 64.8738 37.3261H64.4286C64.4286 37.2525 64.4129 37.1875 64.3814 37.1311C64.3511 37.0748 64.3045 37.0304 64.2417 36.9979C64.1799 36.9654 64.1019 36.9491 64.0077 36.9491C63.9167 36.9491 63.8408 36.9627 63.7802 36.9898C63.7206 37.0168 63.6756 37.0537 63.6453 37.1003C63.616 37.1468 63.6014 37.1988 63.6014 37.2563C63.6014 37.2996 63.6117 37.3386 63.6323 37.3733C63.6529 37.4069 63.6837 37.4388 63.7249 37.4692C63.7661 37.4984 63.817 37.526 63.8777 37.552C63.9394 37.577 64.0109 37.6019 64.0922 37.6268C64.2222 37.6658 64.3359 37.7091 64.4334 37.7568C64.532 37.8045 64.6138 37.8586 64.6788 37.9193C64.7449 37.98 64.7942 38.0482 64.8267 38.1241C64.8603 38.1999 64.8771 38.286 64.8771 38.3825C64.8771 38.4843 64.857 38.5753 64.817 38.6555C64.7769 38.7357 64.7195 38.8039 64.6447 38.8602C64.5699 38.9166 64.48 38.9594 64.3749 38.9886C64.2709 39.0179 64.1545 39.0325 64.0255 39.0325C63.9107 39.0325 63.7969 39.0173 63.6843 38.987C63.5727 38.9556 63.4714 38.909 63.3804 38.8472C63.2894 38.7844 63.2168 38.7053 63.1626 38.61C63.1084 38.5136 63.0814 38.4009 63.0814 38.272H63.5299C63.5299 38.3467 63.5418 38.4106 63.5656 38.4637C63.5906 38.5157 63.6252 38.5585 63.6696 38.5921C63.7151 38.6246 63.7682 38.6484 63.8289 38.6636C63.8896 38.6788 63.9551 38.6864 64.0255 38.6864C64.1165 38.6864 64.1913 38.6739 64.2498 38.649C64.3094 38.623 64.3538 38.5872 64.3831 38.5417C64.4134 38.4962 64.4286 38.4442 64.4286 38.3857ZM66.9613 36.993L66.2869 39H65.814L66.698 36.6339H67.0003L66.9613 36.993ZM67.5252 39L66.8476 36.993L66.8069 36.6339H67.1108L67.9998 39H67.5252ZM67.4943 38.1208V38.4735H66.2251V38.1208H67.4943ZM69.7411 38.5368L70.331 36.6339H70.8266L69.9913 39H69.6614L69.7411 38.5368ZM69.1967 36.6339L69.7833 38.5368L69.8678 39H69.5347L68.7026 36.6339H69.1967ZM72.3453 36.6339V39H71.8984V36.6339H72.3453ZM75.5281 36.6339V39H75.0796L74.0736 37.3587V39H73.6267V36.6339H74.0736L75.0828 38.2768V36.6339H75.5281ZM78.628 37.7763V38.6977C78.5934 38.7422 78.5386 38.7904 78.4639 38.8424C78.3902 38.8944 78.2938 38.9393 78.1746 38.9772C78.0554 39.0141 77.9092 39.0325 77.7358 39.0325C77.5853 39.0325 77.4477 39.0076 77.3231 38.9577C77.1985 38.9068 77.0912 38.8326 77.0013 38.7351C76.9114 38.6376 76.842 38.5184 76.7933 38.3776C76.7445 38.2367 76.7202 38.0759 76.7202 37.8949V37.7389C76.7202 37.558 76.7429 37.3971 76.7884 37.2563C76.835 37.1154 76.9011 36.9963 76.9867 36.8987C77.0733 36.8012 77.1768 36.727 77.2971 36.6761C77.4184 36.6252 77.5538 36.5997 77.7033 36.5997C77.9038 36.5997 78.0684 36.6328 78.1974 36.6989C78.3274 36.7649 78.4271 36.856 78.4964 36.9719C78.5657 37.0867 78.6091 37.2189 78.6264 37.3684H78.1909C78.179 37.2861 78.1551 37.214 78.1194 37.1523C78.0836 37.0894 78.0327 37.0407 77.9666 37.006C77.9016 36.9703 77.8171 36.9524 77.7131 36.9524C77.6253 36.9524 77.5479 36.9697 77.4807 37.0044C77.4135 37.039 77.3572 37.0894 77.3117 37.1555C77.2662 37.2216 77.2315 37.3034 77.2077 37.4009C77.1849 37.4984 77.1736 37.61 77.1736 37.7357V37.8949C77.1736 38.0217 77.1866 38.1344 77.2126 38.233C77.2386 38.3305 77.2759 38.4128 77.3247 38.48C77.3745 38.5461 77.4357 38.5964 77.5083 38.6311C77.582 38.6647 77.6654 38.6815 77.7586 38.6815C77.8431 38.6815 77.913 38.6744 77.9682 38.6604C78.0246 38.6452 78.0695 38.6273 78.1031 38.6067C78.1367 38.5861 78.1627 38.5661 78.1811 38.5466V38.1029H77.7115V37.7763H78.628Z" fill="white"/>
<path d="M9.94377 0.182003C8.70393 0.581722 7.60185 1.58673 6.8379 3.00289C6.24929 4.07642 6.02387 4.93297 5.9362 6.38338L5.86106 7.59397L4.49599 7.65107C3.29372 7.70817 3.04324 7.75385 2.3294 8.07363C1.44022 8.47335 0.814036 9.07864 0.363185 9.98087C0.0751418 10.5405 0.0751418 10.5519 0.0375709 17.1987L0 23.8455L6.42462 23.8112C12.2732 23.7884 12.8993 23.7655 13.4379 23.5714C14.2519 23.2973 14.6652 22.829 14.6652 22.1895C14.6652 21.173 14.0766 20.8533 10.6451 20.0767C6.8379 19.2201 5.52292 18.3293 5.12217 16.3079C4.94684 15.497 5.10964 14.5148 5.53545 13.7154C6.12406 12.619 7.51418 11.7054 9.34263 11.2143C9.98134 11.043 10.8956 11.0087 15.7297 10.9516C20.8393 10.8945 21.4154 10.8603 21.716 10.6775C22.8807 9.98087 22.768 8.42767 21.5156 7.86806C21.0272 7.65107 20.7517 7.62823 18.8355 7.62823H16.7065L16.6314 6.3948C16.4936 4.22489 15.8299 2.68311 14.5024 1.38116C13.5506 0.456097 12.699 0.0677967 11.4967 0.0106945C10.8455 -0.0235691 10.4197 0.0221138 9.94377 0.182003ZM12.7616 1.17559C14.6151 1.96362 15.905 4.24773 15.9175 6.73742V7.62823H11.2838H6.65005V6.73742C6.66257 4.23631 7.95251 1.96362 9.80601 1.17559C10.7202 0.787294 11.8474 0.787294 12.7616 1.17559Z" fill="white"/>
<path d="M10.6577 13.8411C9.45541 14.081 8.91689 14.515 8.8167 15.303C8.76661 15.737 8.80418 15.8626 9.10475 16.1824C9.56812 16.6963 10.1192 16.9019 12.2858 17.3929C14.4649 17.8726 15.1537 18.0782 15.9802 18.4551C16.9696 18.9005 17.6208 19.4486 18.0091 20.1681C18.3221 20.7392 18.3597 20.9447 18.3597 21.9041C18.3597 22.8406 18.3096 23.0804 18.0216 23.6514C17.3829 24.8963 15.9427 25.8556 14.0265 26.3124C13.3377 26.4837 12.3233 26.518 6.87554 26.5523L0.513534 26.5979L0.263061 26.8949C-0.05003 27.2718 -0.05003 27.5116 0.275585 27.8885L0.526057 28.1854H9.84364C18.9358 28.1854 19.1863 28.1854 19.85 27.9456C20.7643 27.6372 21.7035 26.8492 22.1419 26.0383L22.4925 25.3874L22.5301 19.5286L22.5677 13.6812L16.9571 13.6927C13.0622 13.6927 11.1336 13.7384 10.6577 13.8411Z" fill="white"/>
</svg>
