<svg width="86" height="33" viewBox="0 0 86 33" fill="none" xmlns="http://www.w3.org/2000/svg">
<path d="M52.9329 18.9174H53.8435L55.9847 24.1474H56.0586L58.1998 18.9174H59.1104V25.218H58.3967V20.431H58.3352L56.3662 25.218H55.6771L53.7082 20.431H53.6466V25.218H52.9329V18.9174ZM61.9323 25.3288C61.6329 25.3288 61.3611 25.2724 61.117 25.1596C60.873 25.0447 60.6792 24.8796 60.5356 24.6643C60.392 24.4469 60.3202 24.1843 60.3202 23.8767C60.3202 23.606 60.3736 23.3865 60.4802 23.2183C60.5869 23.0481 60.7294 22.9148 60.9078 22.8184C61.0863 22.722 61.2832 22.6502 61.4985 22.603C61.7159 22.5538 61.9344 22.5148 62.1538 22.4861C62.441 22.4492 62.6737 22.4215 62.8522 22.4031C63.0327 22.3825 63.1639 22.3487 63.246 22.3015C63.33 22.2544 63.3721 22.1723 63.3721 22.0554V22.0308C63.3721 21.7273 63.289 21.4914 63.1229 21.3232C62.9588 21.155 62.7096 21.0709 62.3753 21.0709C62.0287 21.0709 61.757 21.1468 61.5601 21.2986C61.3632 21.4504 61.2247 21.6124 61.1447 21.7847L60.4556 21.5386C60.5787 21.2514 60.7427 21.0279 60.9478 20.8679C61.155 20.7059 61.3806 20.5931 61.6247 20.5295C61.8708 20.4639 62.1128 20.431 62.3507 20.431C62.5025 20.431 62.6768 20.4495 62.8737 20.4864C63.0727 20.5213 63.2644 20.5941 63.449 20.7048C63.6356 20.8156 63.7905 20.9828 63.9136 21.2063C64.0366 21.4299 64.0981 21.7293 64.0981 22.1046V25.218H63.3721V24.5781H63.3352C63.286 24.6807 63.2039 24.7904 63.0891 24.9073C62.9742 25.0242 62.8214 25.1237 62.6307 25.2057C62.4399 25.2878 62.2071 25.3288 61.9323 25.3288ZM62.0431 24.6766C62.3302 24.6766 62.5722 24.6202 62.7691 24.5074C62.9681 24.3946 63.1178 24.2489 63.2183 24.0705C63.3208 23.8921 63.3721 23.7044 63.3721 23.5075V22.843C63.3413 22.8799 63.2736 22.9137 63.169 22.9445C63.0665 22.9732 62.9475 22.9989 62.8122 23.0214C62.6789 23.0419 62.5486 23.0604 62.4215 23.0768C62.2964 23.0912 62.1948 23.1035 62.1169 23.1137C61.9282 23.1383 61.7518 23.1783 61.5877 23.2337C61.4257 23.287 61.2945 23.368 61.194 23.4767C61.0955 23.5834 61.0463 23.729 61.0463 23.9136C61.0463 24.1659 61.1396 24.3566 61.3262 24.4858C61.5149 24.613 61.7539 24.6766 62.0431 24.6766ZM65.4233 25.218V20.4926H66.1248V21.2063H66.174C66.2601 20.9725 66.416 20.7828 66.6416 20.6372C66.8672 20.4915 67.1215 20.4187 67.4046 20.4187C67.4579 20.4187 67.5246 20.4198 67.6045 20.4218C67.6845 20.4239 67.745 20.4269 67.7861 20.431V21.1694C67.7614 21.1632 67.705 21.154 67.6168 21.1417C67.5307 21.1273 67.4394 21.1202 67.343 21.1202C67.1133 21.1202 66.9082 21.1684 66.7277 21.2648C66.5493 21.3591 66.4078 21.4904 66.3032 21.6585C66.2006 21.8247 66.1494 22.0144 66.1494 22.2277V25.218H65.4233ZM70.9979 20.4926V21.1079H68.549V20.4926H70.9979ZM69.2628 19.3604H69.9888V23.8644C69.9888 24.0695 70.0185 24.2233 70.078 24.3258C70.1395 24.4263 70.2175 24.494 70.3118 24.5289C70.4082 24.5617 70.5097 24.5781 70.6164 24.5781C70.6964 24.5781 70.762 24.574 70.8133 24.5658C70.8646 24.5556 70.9056 24.5473 70.9363 24.5412L71.084 25.1934C71.0348 25.2119 70.9661 25.2303 70.8779 25.2488C70.7897 25.2693 70.6779 25.2795 70.5426 25.2795C70.3375 25.2795 70.1365 25.2355 69.9396 25.1473C69.7447 25.0591 69.5827 24.9247 69.4535 24.7442C69.3263 24.5638 69.2628 24.3361 69.2628 24.0613V19.3604Z" fill="white"/>
<path d="M34.4167 7.60522H31.6577L31.7725 14.8794V15.6643L34.4167 12.5061L34.3668 11.4779L34.4167 7.60522Z" fill="white"/>
<path d="M47.4908 2.18091L43.7186 6.01362H44.7312C44.5696 6.06353 44.0362 7.52412 44.0362 7.52412L41.835 13.4632C41.6129 14.064 41.4357 14.5669 41.3041 14.9705C41.1724 15.3748 41.0626 15.7511 40.9747 16.0992H40.8661C40.8973 15.7355 40.9229 15.338 40.9435 14.9063C40.964 14.4745 40.9796 13.9704 40.9902 13.3952L41.0676 7.52412H37.4633L34.9751 13.6984C34.8715 13.971 34.753 14.3161 34.6188 14.7322C34.5533 14.9356 34.4859 15.1484 34.4167 15.3698L33.5551 18.2885H35.4948L37.9131 12.0388C38.0578 11.665 38.2013 11.2751 38.343 10.8683C38.4852 10.4621 38.6362 10.0085 38.7966 9.50879H38.9282C38.887 9.97361 38.8546 10.4621 38.8315 10.9744C38.8084 11.4872 38.7916 12.0288 38.781 12.599L38.688 18.2885H42.2924L46.943 7.52349L47.4833 6.013H48.4042L47.4908 2.18091ZM44.7481 6.01362H47.4047C46.9705 6.02423 44.871 6.07164 44.7481 6.01362Z" fill="white"/>
<path d="M29.2732 11.4994C29.2732 12.8676 29.0262 14.05 28.5321 15.0466C28.0381 16.0431 27.3603 16.8117 26.4989 17.3522C25.6374 17.8927 24.6535 18.163 23.5472 18.163C22.4408 18.163 21.4569 17.8927 20.5954 17.3522C19.734 16.8117 19.0562 16.0431 18.5622 15.0466C18.0681 14.05 17.8211 12.8676 17.8211 11.4994C17.8211 10.1313 18.0681 8.9489 18.5622 7.95233C19.0562 6.95575 19.734 6.18721 20.5954 5.6467C21.4569 5.10619 22.4408 4.83593 23.5472 4.83593C24.6535 4.83593 25.6374 5.10619 26.4989 5.6467C27.3603 6.18721 28.0381 6.95575 28.5321 7.95233C29.0262 8.9489 29.2732 10.1313 29.2732 11.4994ZM27.753 11.4994C27.753 10.3762 27.5651 9.42818 27.1893 8.65541C26.8177 7.88265 26.3131 7.2978 25.6754 6.90086C25.042 6.50392 24.3326 6.30545 23.5472 6.30545C22.7617 6.30545 22.0502 6.50392 21.4125 6.90086C20.7791 7.2978 20.2745 7.88265 19.8987 8.65541C19.5271 9.42818 19.3413 10.3762 19.3413 11.4994C19.3413 12.6227 19.5271 13.5707 19.8987 14.3435C20.2745 15.1162 20.7791 15.7011 21.4125 16.098C22.0502 16.495 22.7617 16.6934 23.5472 16.6934C24.3326 16.6934 25.042 16.495 25.6754 16.098C26.3131 15.7011 26.8177 15.1162 27.1893 14.3435C27.5651 13.5707 27.753 12.6227 27.753 11.4994Z" fill="white"/>
<path d="M77.4393 29.9421C77.2153 29.292 77.0069 28.6756 76.7885 28.0623C76.7318 27.9026 76.733 27.7597 76.7885 27.5993C77.4767 25.6165 78.1636 23.6331 78.8381 21.6453C78.9198 21.4045 79.0315 21.3253 79.2848 21.3315C80.0591 21.3496 80.834 21.339 81.6089 21.3371C82.0456 21.3365 82.3289 21.0819 82.3264 20.6982C82.3239 20.3239 82.0288 20.0624 81.5989 20.0618C80.512 20.06 79.4252 20.0743 78.339 20.0512C78.0694 20.0456 78.0002 20.1641 77.929 20.3713C77.2234 22.4333 76.5078 24.4916 75.8077 26.5555C75.7235 26.8032 75.6162 26.8874 75.3454 26.8862C72.9508 26.8731 70.5562 26.8781 68.1617 26.8787C67.8048 26.8787 67.549 27.0597 67.4772 27.3529C67.403 27.6561 67.5377 27.9462 67.811 28.0904C67.9239 28.1503 68.0419 28.1521 68.1629 28.1521C70.507 28.1527 72.8516 28.1534 75.1957 28.1534C75.4477 28.1534 75.6199 28.3218 75.6181 28.5627C75.6168 28.7062 75.5083 28.6544 75.444 28.655C74.9411 28.66 74.4382 28.6587 73.9347 28.6594C72.4455 28.6594 70.9568 28.6569 69.4675 28.6612C68.9366 28.6631 68.6165 29.0924 68.8043 29.5428C68.9216 29.8248 69.1449 29.9465 69.4488 29.9459C71.6624 29.9434 73.8761 29.9434 76.0891 29.9428C76.5221 29.9421 76.9539 29.9421 77.4393 29.9421Z" fill="white"/>
<path d="M69.7683 31.2853C69.7727 32.0396 70.5326 32.8881 71.2776 32.9717C71.8728 33.0385 72.2584 32.618 72.1723 31.9965C72.0762 31.299 71.4485 30.6252 70.7585 30.4792C70.182 30.3575 69.7646 30.6969 69.7683 31.2853Z" fill="white"/>
<path d="M74.0969 31.2623C74.0944 32.0172 74.8126 32.8551 75.5569 32.9662C76.1415 33.0535 76.5364 32.6867 76.4965 32.0946C76.4466 31.3577 75.8133 30.6377 75.079 30.4817C74.5062 30.3607 74.0994 30.6845 74.0969 31.2623Z" fill="white"/>
<path d="M82.2428 23.0215C83.1368 23.0215 84.0315 23.0222 84.9256 23.0209C85.2338 23.0203 85.3523 22.9155 85.3523 22.6516C85.353 22.3901 85.2319 22.2834 84.9218 22.2834C83.1231 22.2834 81.3244 22.2834 79.5256 22.2866C79.1937 22.2872 79.0508 22.48 79.1332 22.7907C79.1849 22.986 79.3197 23.0222 79.4994 23.0215C80.4134 23.0165 81.3281 23.019 82.2421 23.019C82.2428 23.0197 82.2428 23.0209 82.2428 23.0215Z" fill="white"/>
<path d="M81.5765 23.85C80.7417 23.85 79.9069 23.8494 79.0721 23.8506C78.7657 23.8512 78.6428 23.9617 78.6466 24.2237C78.6497 24.4851 78.7676 24.5837 79.0839 24.5843C80.7435 24.585 82.4025 24.5856 84.0621 24.585C84.3573 24.585 84.4964 24.462 84.4933 24.2119C84.4895 23.9573 84.3635 23.8512 84.0509 23.8506C83.2255 23.8487 82.4007 23.8494 81.5765 23.85Z" fill="white"/>
<path d="M80.8229 25.4111C80.0598 25.4111 79.2968 25.4098 78.5337 25.4117C78.2324 25.4123 78.1051 25.5265 78.1082 25.7835C78.1113 26.0375 78.2392 26.1473 78.5437 26.1473C80.0698 26.1479 81.5959 26.1479 83.122 26.1466C83.4252 26.1466 83.545 26.0375 83.5431 25.7729C83.5413 25.5084 83.4283 25.4117 83.112 25.4111C82.349 25.4104 81.5859 25.4111 80.8229 25.4111Z" fill="white"/>
<path d="M80.0971 26.9734C79.384 26.9734 78.6715 26.9797 77.9589 26.9703C77.6913 26.9666 77.5609 27.0832 77.5628 27.3415C77.5646 27.5961 77.6919 27.7184 77.9589 27.7171C79.3746 27.7115 80.7903 27.7121 82.2059 27.7165C82.4805 27.7171 82.589 27.5805 82.584 27.3272C82.5797 27.0832 82.4605 26.9684 82.2053 26.9709C81.5028 26.979 80.7996 26.974 80.0971 26.974C80.0971 26.9747 80.0971 26.974 80.0971 26.9734Z" fill="white"/>
<path d="M19.7592 5.19222C21.193 5.19222 22.3553 4.0299 22.3553 2.59611C22.3553 1.16232 21.193 0 19.7592 0C18.3254 0 17.1631 1.16232 17.1631 2.59611C17.1631 4.0299 18.3254 5.19222 19.7592 5.19222Z" fill="white"/>
<path d="M19.2445 1.84415C19.4766 1.84415 19.7087 1.84664 19.9408 1.8429C20.0743 1.84102 20.1984 1.86598 20.3157 1.72872C20.4075 1.62141 20.5953 1.68318 20.7151 1.73933C20.9353 1.8429 21.1593 1.85101 21.3908 1.84539C21.4563 1.84352 21.5505 1.82044 21.5592 1.92151C21.5667 2.01323 21.5056 2.07874 21.4151 2.10494C21.382 2.1143 21.3452 2.10806 21.3103 2.1118C21.1661 2.1274 20.9721 2.04068 20.8879 2.1561C20.7419 2.35576 20.5996 2.57911 20.5703 2.83617C20.5067 3.39457 20.4543 3.95485 20.4056 4.51512C20.3944 4.64303 20.3332 4.6867 20.2209 4.69544C20.0774 4.70604 19.9433 4.67484 19.811 4.61932C19.6787 4.56316 19.6363 4.47769 19.6719 4.33606C19.7492 4.02972 19.8166 3.72026 19.8884 3.41267C19.899 3.3665 19.9333 3.30972 19.8796 3.27977C19.8272 3.25045 19.7929 3.3091 19.7573 3.34029C19.5296 3.53932 19.305 3.74147 19.0754 3.938C18.8745 4.10958 18.688 3.97544 18.5133 3.88622C18.3623 3.80885 18.2762 3.69031 18.3248 3.48878C18.4228 3.08573 18.5326 2.6858 18.6555 2.29024C18.7017 2.14113 18.6586 2.09808 18.5164 2.11118C18.4608 2.11617 18.4041 2.11367 18.3479 2.11118C18.2674 2.10744 18.1508 2.13115 18.1545 2.01135C18.157 1.90716 18.2381 1.84227 18.3585 1.84352C18.6536 1.84602 18.9487 1.84415 19.2445 1.84415ZM18.9294 3.54931C19.0261 3.57114 19.0717 3.51873 19.121 3.48379C19.3955 3.28788 19.6638 3.08386 19.9171 2.8605C20.0113 2.77814 20.0643 2.68643 20.0893 2.55977C20.1829 2.09059 20.1878 2.0987 19.6968 2.08934C19.529 2.08622 19.436 2.14238 19.3418 2.284C19.0885 2.66709 19.0249 3.10258 18.9294 3.54931Z" fill="#FF3131"/>
<path d="M19.2275 0.616695C19.2356 0.589866 19.2394 0.544942 19.2612 0.512498C19.4515 0.231736 19.9232 0.191185 20.1491 0.441375C20.3955 0.714649 20.5746 1.0316 20.7162 1.37038C20.7486 1.44775 20.7667 1.52199 20.6694 1.56567C20.5708 1.60996 20.5159 1.56068 20.4698 1.47458C20.3737 1.29489 20.2501 1.13392 20.1185 0.97794C20.0293 0.871874 19.955 0.865634 19.8571 0.953606C19.7703 1.03222 19.6799 1.09149 19.5588 1.01038C19.4141 0.913678 19.2469 0.838808 19.2275 0.616695Z" fill="#FF3131"/>
<path d="M15.7753 6.87441C15.776 7.93819 15.781 9.00196 15.7697 10.0651C15.7679 10.208 15.6811 10.3502 15.6337 10.4931C15.5102 10.4157 15.3592 10.3621 15.2681 10.2567C14.5119 9.37694 13.6091 8.69936 12.5616 8.20148C12.4337 8.14096 12.3064 7.93818 12.2976 7.79406C12.2652 7.29118 12.2746 6.78394 12.2889 6.27919C12.2958 6.04273 12.2041 5.9192 11.9913 5.82935C10.7085 5.28468 9.43263 4.72378 8.14612 4.18784C7.997 4.12544 7.77613 4.12794 7.62577 4.19033C6.35111 4.72066 5.08956 5.28093 3.81428 5.80939C3.53289 5.92606 3.47487 6.09327 3.49608 6.36093C3.61275 7.83586 4.79382 8.90276 6.34425 8.91274C7.46106 8.92023 8.57786 8.91337 9.69467 8.91461C12.9041 8.91649 15.5426 11.5057 15.7566 14.7164C15.8153 15.5986 15.5202 16.0909 14.905 16.625C12.6502 18.5815 10.4359 20.5849 8.21787 22.584C7.96331 22.8129 7.80421 22.8098 7.55714 22.5877C5.60429 20.8295 3.64083 19.0819 1.68174 17.3306C1.19695 16.897 0.702189 16.4733 0.236749 16.0198C0.11259 15.8987 0.0158827 15.6847 0.014011 15.5119C-0.00408255 14.1424 -0.000338909 12.7729 0.0102676 11.404C0.0115155 11.2668 0.103231 11.1301 0.153145 10.9929C0.272312 11.0578 0.418308 11.0971 0.505656 11.1913C1.27494 12.0192 2.15154 12.6955 3.20721 13.1154C3.45365 13.2134 3.5304 13.3625 3.49483 13.6008C3.42683 14.0594 3.59466 14.3801 3.95653 14.6908C5.20436 15.7627 6.42037 16.872 7.6395 17.977C7.83728 18.156 7.97454 18.1205 8.14924 17.9633C9.4214 16.819 10.7017 15.6828 11.9657 14.5286C12.0606 14.4425 12.1167 14.2166 12.0755 14.0944C11.7436 13.1148 10.7048 12.3911 9.65786 12.3823C8.35575 12.3717 7.05115 12.406 5.75091 12.3461C2.76111 12.2083 0.237372 9.71634 0.0626763 6.74214C0.000908694 5.69646 0.0271131 4.64516 0.000284777 3.59699C-0.00595437 3.35553 0.0901299 3.23512 0.307876 3.15775C2.75986 2.28864 5.20935 1.41204 7.66383 0.550413C7.81045 0.498629 8.00948 0.509856 8.15922 0.562889C10.5376 1.40081 12.9085 2.26056 15.2912 3.08787C15.678 3.22202 15.7959 3.41168 15.786 3.80475C15.7579 4.8261 15.7747 5.85057 15.7753 6.87441Z" fill="white"/>
<path d="M61.7 8.80056C61.7 7.21582 61.1341 6.0491 60.0029 5.3004C58.8718 4.55233 57.1067 4.17798 54.7084 4.17798H49.6715L45.5431 23.0346L44.7463 25.3998L49.6491 25.0011L50.0646 23.0346L51.9382 15.0204C52.466 15.0447 52.9315 15.0622 53.3351 15.0747C53.7388 15.0865 54.0807 15.0927 54.3602 15.0927C56.6469 15.0927 58.4419 14.5325 59.7446 13.4119C61.048 12.2907 61.7 10.754 61.7 8.80056ZM56.3512 11.1477C55.7435 11.6001 54.8918 11.8259 53.7968 11.8259H52.5977L53.5448 7.25138H54.6004C55.4639 7.25138 56.1234 7.42359 56.5795 7.76799C57.035 8.11239 57.2633 8.61276 57.2633 9.2685C57.2627 10.0696 56.9588 10.696 56.3512 11.1477Z" fill="white"/>
<path d="M64.7177 8.24072L58.4468 18.6089H61.4253L62.6944 16.3978H66.8528L67.1292 18.6089H69.9437L68.2341 8.24072H64.7177ZM63.7844 14.4424L66.1359 10.2691L66.6438 14.4424H63.7844Z" fill="white"/>
<path d="M78.947 8.24086L76.7146 11.225C76.6447 11.3224 76.5405 11.479 76.4014 11.6955C76.2623 11.912 76.1075 12.159 75.9384 12.4361C75.8786 12.2027 75.8155 11.9544 75.7482 11.6917C75.6808 11.4291 75.6421 11.2831 75.6321 11.2537L74.6395 8.24023H71.5486L74.1316 14.6903L73.3405 18.6085H76.1549L77.006 14.6903L82.2543 8.24023H78.947V8.24086Z" fill="white"/>
</svg>
