<svg width="206" height="98" viewBox="0 0 206 98" fill="none" xmlns="http://www.w3.org/2000/svg">
<path d="M157.648 58.6015H151.801L157.648 43.1285H161.773L169.752 58.6015H163.692L159.817 46.6643H159.696L157.648 58.6015ZM155.593 52.5196H163.874V55.0732H155.593V52.5196Z" fill="#FF3131"/>
<path d="M143.336 63.8428H145.249L147.27 68.7722H147.356L149.376 63.8428H151.289V71.1795H149.785V66.4042H149.724L147.825 71.1437H146.801L144.902 66.3863H144.841V71.1795H143.336V63.8428ZM153.832 71.1795H152.17L154.702 63.8428H156.701L159.231 71.1795H157.568L155.731 65.5194H155.673L153.832 71.1795ZM153.728 68.2957H157.654V69.5066H153.728V68.2957ZM160.114 71.1795V63.8428H163.008C163.562 63.8428 164.035 63.9419 164.427 64.1401C164.821 64.336 165.121 64.6142 165.326 64.9748C165.534 65.3331 165.638 65.7546 165.638 66.2394C165.638 66.7266 165.533 67.1458 165.322 67.4968C165.112 67.8455 164.808 68.113 164.409 68.2993C164.012 68.4856 163.532 68.5787 162.969 68.5787H161.031V67.332H162.718C163.014 67.332 163.26 67.2914 163.456 67.2102C163.652 67.129 163.798 67.0072 163.893 66.8448C163.991 66.6824 164.04 66.4806 164.04 66.2394C164.04 65.9958 163.991 65.7904 163.893 65.6232C163.798 65.4561 163.651 65.3295 163.452 65.2435C163.257 65.1551 163.009 65.111 162.711 65.111H161.665V71.1795H160.114ZM164.076 67.8407L165.899 71.1795H164.187L162.403 67.8407H164.076ZM166.454 65.1217V63.8428H172.48V65.1217H170.234V71.1795H168.701V65.1217H166.454Z" fill="#0F2DB0"/>
<path d="M154.758 73.3986L150.698 81.8019L149.54 76.6349L145.597 74.0298L154.758 73.3986Z" fill="#12E77F"/>
<path d="M154.985 73.2882L151.034 81.4644L149.908 76.437L146.072 73.9024L154.985 73.2882Z" fill="#01BE62"/>
<path d="M86.6931 56.343C86.6931 59.6233 86.0713 62.414 84.8278 64.715C83.594 67.0161 81.9098 68.7738 79.7752 69.988C77.6503 71.1924 75.2611 71.7946 72.6075 71.7946C69.9344 71.7946 67.5354 71.1875 65.4105 69.9733C63.2857 68.7591 61.6064 67.0014 60.3726 64.7004C59.1388 62.3993 58.5219 59.6135 58.5219 56.343C58.5219 53.0627 59.1388 50.2721 60.3726 47.971C61.6064 45.6699 63.2857 43.9171 65.4105 42.7127C67.5354 41.4985 69.9344 40.8914 72.6075 40.8914C75.2611 40.8914 77.6503 41.4985 79.7752 42.7127C81.9098 43.9171 83.594 45.6699 84.8278 47.971C86.0713 50.2721 86.6931 53.0627 86.6931 56.343ZM80.2452 56.343C80.2452 54.2182 79.927 52.4263 79.2905 50.9673C78.6638 49.5083 77.7776 48.4018 76.632 47.6478C75.4863 46.8939 74.1449 46.5169 72.6075 46.5169C71.0702 46.5169 69.7287 46.8939 68.5831 47.6478C67.4374 48.4018 66.5464 49.5083 65.9099 50.9673C65.2832 52.4263 64.9699 54.2182 64.9699 56.343C64.9699 58.4678 65.2832 60.2597 65.9099 61.7187C66.5464 63.1777 67.4374 64.2842 68.5831 65.0382C69.7287 65.7921 71.0702 66.1691 72.6075 66.1691C74.1449 66.1691 75.4863 65.7921 76.632 65.0382C77.7776 64.2842 78.6638 63.1777 79.2905 61.7187C79.927 60.2597 80.2452 58.4678 80.2452 56.343ZM97.5887 71.3833L89.5196 43.1827H96.0327L100.701 62.7772H100.935L106.085 43.1827H111.661L116.798 62.8185H117.045L121.713 43.1827H128.227L120.157 71.3833H114.347L108.976 52.9455H108.756L103.4 71.3833H97.5887Z" fill="#01BE62"/>
<path d="M131.418 71.3833V43.1827H142.544C144.683 43.1827 146.505 43.5912 148.01 44.4083C149.516 45.2161 150.663 46.3406 151.453 47.7819C152.251 49.2139 152.651 50.8663 152.651 52.739C152.651 54.6117 152.247 56.2641 151.439 57.6961C150.631 59.1282 149.461 60.2435 147.928 61.0422C146.404 61.8408 144.559 62.2402 142.392 62.2402H135.301V57.462H141.428C142.576 57.462 143.521 57.2647 144.265 56.8699C145.018 56.466 145.578 55.9106 145.945 55.2038C146.321 54.4878 146.509 53.6662 146.509 52.739C146.509 51.8026 146.321 50.9856 145.945 50.288C145.578 49.5811 145.018 49.0349 144.265 48.6494C143.512 48.2546 142.557 48.0573 141.401 48.0573H137.38V71.3833H131.418ZM163.846 43.1827H170.524L176.954 55.3277H177.23L183.66 43.1827H190.339L180.053 61.414V71.3833H174.132V61.414L163.846 43.1827Z" fill="#FF3131"/>
<path d="M61.2486 66.4597L62.5153 62.8797C86.3838 80.1284 136.577 87.4609 153.78 73.6853C134.638 93.7081 74.6869 81.2435 61.2486 66.4597Z" fill="#01BE62"/>
<path d="M3.46561 93.5762C3.46561 93.4685 3.44894 93.3723 3.41561 93.2877C3.38483 93.2005 3.32714 93.1223 3.24252 93.053C3.16046 92.9812 3.04379 92.912 2.89249 92.8453C2.74377 92.7761 2.55145 92.7043 2.31553 92.6299C2.05398 92.5479 1.81037 92.4556 1.58472 92.353C1.35906 92.2504 1.16033 92.1312 0.988525 91.9953C0.819284 91.8594 0.687224 91.703 0.592346 91.526C0.497468 91.3465 0.450029 91.1388 0.450029 90.9029C0.450029 90.6721 0.49875 90.4618 0.596192 90.2721C0.696199 90.0823 0.837234 89.9195 1.0193 89.7836C1.20136 89.6451 1.41548 89.5387 1.66165 89.4643C1.91038 89.39 2.18476 89.3528 2.48478 89.3528C2.90019 89.3528 3.25918 89.4284 3.56177 89.5797C3.86692 89.731 4.10283 89.9362 4.26951 90.1952C4.43618 90.4542 4.51952 90.7452 4.51952 91.0683H3.46561C3.46561 90.8939 3.42843 90.7401 3.35406 90.6067C3.28226 90.4734 3.172 90.3683 3.02327 90.2913C2.87711 90.2144 2.69248 90.1759 2.46939 90.1759C2.25399 90.1759 2.07449 90.208 1.93089 90.2721C1.78986 90.3362 1.68344 90.4234 1.61164 90.5336C1.54241 90.6439 1.50779 90.767 1.50779 90.9029C1.50779 91.0055 1.53215 91.0978 1.58087 91.1798C1.62959 91.2593 1.70267 91.335 1.80012 91.4068C1.89756 91.476 2.01808 91.5414 2.16168 91.6029C2.30784 91.6619 2.47708 91.7209 2.6694 91.7799C2.97712 91.8722 3.24636 91.9748 3.47715 92.0876C3.7105 92.2004 3.9041 92.3286 4.05795 92.4722C4.21437 92.6158 4.33105 92.7774 4.40798 92.9569C4.48747 93.1364 4.52722 93.3402 4.52722 93.5685C4.52722 93.8095 4.47978 94.0249 4.3849 94.2147C4.29002 94.4044 4.15411 94.566 3.97718 94.6993C3.80025 94.8326 3.58741 94.9339 3.33868 95.0032C3.09251 95.0724 2.81685 95.107 2.5117 95.107C2.23989 95.107 1.97064 95.0711 1.70396 94.9993C1.43984 94.925 1.20008 94.8147 0.984679 94.6685C0.76928 94.5198 0.597474 94.3326 0.469261 94.107C0.341048 93.8787 0.276941 93.6121 0.276941 93.3069H1.33855C1.33855 93.4838 1.36675 93.6351 1.42317 93.7608C1.48215 93.8839 1.5642 93.9852 1.66934 94.0646C1.77704 94.1416 1.90269 94.198 2.04629 94.2339C2.18989 94.2698 2.34502 94.2877 2.5117 94.2877C2.7271 94.2877 2.90403 94.2582 3.0425 94.1993C3.18354 94.1377 3.28867 94.0531 3.35791 93.9454C3.42971 93.8377 3.46561 93.7146 3.46561 93.5762ZM7.6948 89.4297H8.61025L10.1411 93.6454L11.6681 89.4297H12.5874L10.5065 95.0301H9.77186L7.6948 89.4297ZM7.23324 89.4297H8.12945L8.291 93.3031V95.0301H7.23324V89.4297ZM12.1489 89.4297H13.049V95.0301H11.9912V93.3031L12.1489 89.4297ZM18.3129 90.2798L16.7166 95.0301H15.5973L17.6898 89.4297H18.4052L18.3129 90.2798ZM19.6476 95.0301L18.0436 90.2798L17.9475 89.4297H18.6667L20.7707 95.0301H19.6476ZM19.5745 92.9492V93.7839H16.5705V92.9492H19.5745ZM23.2383 89.4297H25.273C25.6987 89.4297 26.0641 89.4938 26.3692 89.622C26.6744 89.7503 26.909 89.94 27.0731 90.1913C27.2372 90.4426 27.3193 90.7516 27.3193 91.1183C27.3193 91.4081 27.268 91.6594 27.1654 91.8722C27.0629 92.085 26.918 92.2632 26.7308 92.4068C26.5462 92.5504 26.3282 92.6633 26.0769 92.7453L25.7461 92.9146H23.9499L23.9422 92.0799H25.2846C25.5025 92.0799 25.6833 92.0414 25.8269 91.9645C25.9705 91.8876 26.0782 91.7812 26.15 91.6453C26.2244 91.5094 26.2615 91.3542 26.2615 91.1798C26.2615 90.9927 26.2256 90.8311 26.1538 90.6952C26.082 90.5567 25.9731 90.4503 25.8269 90.3759C25.6807 90.3016 25.4961 90.2644 25.273 90.2644H24.296V95.0301H23.2383V89.4297ZM26.4 95.0301L25.1038 92.5222L26.2231 92.5184L27.5347 94.9762V95.0301H26.4ZM32.2947 89.4297V95.0301H31.2408V89.4297H32.2947ZM34.0333 89.4297V90.2644H29.5214V89.4297H34.0333ZM43.2186 93.5762C43.2186 93.4685 43.202 93.3723 43.1686 93.2877C43.1379 93.2005 43.0802 93.1223 42.9955 93.053C42.9135 92.9812 42.7968 92.912 42.6455 92.8453C42.4968 92.7761 42.3045 92.7043 42.0686 92.6299C41.807 92.5479 41.5634 92.4556 41.3377 92.353C41.1121 92.2504 40.9134 92.1312 40.7416 91.9953C40.5723 91.8594 40.4403 91.703 40.3454 91.526C40.2505 91.3465 40.2031 91.1388 40.2031 90.9029C40.2031 90.6721 40.2518 90.4618 40.3492 90.2721C40.4492 90.0823 40.5903 89.9195 40.7723 89.7836C40.9544 89.6451 41.1685 89.5387 41.4147 89.4643C41.6634 89.39 41.9378 89.3528 42.2378 89.3528C42.6532 89.3528 43.0122 89.4284 43.3148 89.5797C43.6199 89.731 43.8559 89.9362 44.0225 90.1952C44.1892 90.4542 44.2726 90.7452 44.2726 91.0683H43.2186C43.2186 90.8939 43.1815 90.7401 43.1071 90.6067C43.0353 90.4734 42.925 90.3683 42.7763 90.2913C42.6301 90.2144 42.4455 90.1759 42.2224 90.1759C42.007 90.1759 41.8275 90.208 41.6839 90.2721C41.5429 90.3362 41.4365 90.4234 41.3647 90.5336C41.2954 90.6439 41.2608 90.767 41.2608 90.9029C41.2608 91.0055 41.2852 91.0978 41.3339 91.1798C41.3826 91.2593 41.4557 91.335 41.5531 91.4068C41.6506 91.476 41.7711 91.5414 41.9147 91.6029C42.0609 91.6619 42.2301 91.7209 42.4224 91.7799C42.7301 91.8722 42.9994 91.9748 43.2302 92.0876C43.4635 92.2004 43.6571 92.3286 43.811 92.4722C43.9674 92.6158 44.0841 92.7774 44.161 92.9569C44.2405 93.1364 44.2802 93.3402 44.2802 93.5685C44.2802 93.8095 44.2328 94.0249 44.1379 94.2147C44.043 94.4044 43.9071 94.566 43.7302 94.6993C43.5533 94.8326 43.3404 94.9339 43.0917 95.0032C42.8455 95.0724 42.5699 95.107 42.2647 95.107C41.9929 95.107 41.7237 95.0711 41.457 94.9993C41.1929 94.925 40.9531 94.8147 40.7377 94.6685C40.5223 94.5198 40.3505 94.3326 40.2223 94.107C40.0941 93.8787 40.03 93.6121 40.03 93.3069H41.0916C41.0916 93.4838 41.1198 93.6351 41.1762 93.7608C41.2352 93.8839 41.3172 93.9852 41.4224 94.0646C41.5301 94.1416 41.6557 94.198 41.7993 94.2339C41.9429 94.2698 42.0981 94.2877 42.2647 94.2877C42.4801 94.2877 42.6571 94.2582 42.7955 94.1993C42.9366 94.1377 43.0417 94.0531 43.1109 93.9454C43.1827 93.8377 43.2186 93.7146 43.2186 93.5762ZM50.7019 91.7414V92.5722H47.7555V91.7414H50.7019ZM48.044 89.4297V95.0301H46.9863V89.4297H48.044ZM51.4866 89.4297V95.0301H50.4288V89.4297H51.4866ZM58.989 92.0876V92.3761C58.989 92.7992 58.9326 93.18 58.8198 93.5185C58.707 93.8544 58.5467 94.1403 58.339 94.3762C58.1313 94.6121 57.8838 94.7929 57.5966 94.9185C57.3094 95.0442 56.9902 95.107 56.6389 95.107C56.2927 95.107 55.9747 95.0442 55.685 94.9185C55.3978 94.7929 55.149 94.6121 54.9388 94.3762C54.7285 94.1403 54.5657 93.8544 54.4503 93.5185C54.3349 93.18 54.2772 92.7992 54.2772 92.3761V92.0876C54.2772 91.6619 54.3349 91.2811 54.4503 90.9452C54.5657 90.6093 54.7272 90.3234 54.9349 90.0875C55.1426 89.849 55.3901 89.6669 55.6773 89.5413C55.9671 89.4156 56.285 89.3528 56.6312 89.3528C56.9825 89.3528 57.3018 89.4156 57.589 89.5413C57.8761 89.6669 58.1236 89.849 58.3313 90.0875C58.5416 90.3234 58.7031 90.6093 58.816 90.9452C58.9313 91.2811 58.989 91.6619 58.989 92.0876ZM57.9197 92.3761V92.0799C57.9197 91.7748 57.8915 91.5068 57.8351 91.276C57.7787 91.0427 57.6954 90.8465 57.5851 90.6875C57.4748 90.5285 57.3389 90.4093 57.1774 90.3298C57.0158 90.2477 56.8338 90.2067 56.6312 90.2067C56.4261 90.2067 56.244 90.2477 56.085 90.3298C55.9286 90.4093 55.7952 90.5285 55.685 90.6875C55.5747 90.8465 55.4901 91.0427 55.4311 91.276C55.3747 91.5068 55.3465 91.7748 55.3465 92.0799V92.3761C55.3465 92.6787 55.3747 92.9466 55.4311 93.18C55.4901 93.4133 55.5747 93.6108 55.685 93.7723C55.7978 93.9313 55.9337 94.0518 56.0927 94.1339C56.2517 94.2159 56.4337 94.257 56.6389 94.257C56.844 94.257 57.0261 94.2159 57.1851 94.1339C57.3441 94.0518 57.4774 93.9313 57.5851 93.7723C57.6954 93.6108 57.7787 93.4133 57.8351 93.18C57.8915 92.9466 57.9197 92.6787 57.9197 92.3761ZM63.9298 92.9877H62.4874V92.1568H63.9298C64.1657 92.1568 64.3568 92.1184 64.5029 92.0414C64.6517 91.9619 64.7606 91.8542 64.8299 91.7183C64.8991 91.5799 64.9337 91.4222 64.9337 91.2452C64.9337 91.0734 64.8991 90.9132 64.8299 90.7644C64.7606 90.6157 64.6517 90.4952 64.5029 90.4029C64.3568 90.3106 64.1657 90.2644 63.9298 90.2644H62.8336V95.0301H61.7758V89.4297H63.9298C64.3657 89.4297 64.7376 89.5079 65.0453 89.6644C65.3556 89.8182 65.5915 90.0323 65.753 90.3067C65.9171 90.5785 65.9992 90.8888 65.9992 91.2375C65.9992 91.5991 65.9171 91.9107 65.753 92.1722C65.5915 92.4338 65.3556 92.6351 65.0453 92.7761C64.7376 92.9171 64.3657 92.9877 63.9298 92.9877ZM70.8746 92.9877H69.4322V92.1568H70.8746C71.1105 92.1568 71.3015 92.1184 71.4477 92.0414C71.5964 91.9619 71.7054 91.8542 71.7746 91.7183C71.8439 91.5799 71.8785 91.4222 71.8785 91.2452C71.8785 91.0734 71.8439 90.9132 71.7746 90.7644C71.7054 90.6157 71.5964 90.4952 71.4477 90.4029C71.3015 90.3106 71.1105 90.2644 70.8746 90.2644H69.7784V95.0301H68.7206V89.4297H70.8746C71.3105 89.4297 71.6823 89.5079 71.99 89.6644C72.3003 89.8182 72.5362 90.0323 72.6978 90.3067C72.8619 90.5785 72.9439 90.8888 72.9439 91.2375C72.9439 91.5991 72.8619 91.9107 72.6978 92.1722C72.5362 92.4338 72.3003 92.6351 71.99 92.7761C71.6823 92.9171 71.3105 92.9877 70.8746 92.9877ZM76.7923 89.4297V95.0301H75.7346V89.4297H76.7923ZM84.3256 89.4297V95.0301H83.264L80.8831 91.1452V95.0301H79.8253V89.4297H80.8831L83.2717 93.3184V89.4297H84.3256ZM91.6627 92.1337V94.3147C91.5806 94.4198 91.4511 94.5339 91.2742 94.657C91.0998 94.7801 90.8716 94.8865 90.5895 94.9762C90.3075 95.0634 89.9613 95.107 89.551 95.107C89.1946 95.107 88.8689 95.048 88.574 94.9301C88.2791 94.8096 88.0253 94.6339 87.8124 94.4031C87.5996 94.1723 87.4355 93.8903 87.3201 93.5569C87.2047 93.2236 87.147 92.8428 87.147 92.4145V92.0453C87.147 91.617 87.2009 91.2363 87.3086 90.9029C87.4188 90.5695 87.5752 90.2875 87.7778 90.0567C87.983 89.8259 88.2279 89.6503 88.5125 89.5297C88.7997 89.4092 89.1202 89.349 89.4741 89.349C89.9485 89.349 90.3382 89.4272 90.6434 89.5836C90.9511 89.74 91.187 89.9554 91.3511 90.2298C91.5152 90.5016 91.6178 90.8144 91.6588 91.1683H90.628C90.5998 90.9734 90.5434 90.8029 90.4588 90.6567C90.3741 90.508 90.2536 90.3926 90.0972 90.3106C89.9434 90.2259 89.7433 90.1836 89.4972 90.1836C89.2895 90.1836 89.1061 90.2247 88.9471 90.3067C88.7881 90.3888 88.6548 90.508 88.5471 90.6644C88.4394 90.8208 88.3574 91.0144 88.3009 91.2452C88.2471 91.476 88.2202 91.7401 88.2202 92.0376V92.4145C88.2202 92.7146 88.2509 92.9812 88.3125 93.2146C88.374 93.4454 88.4625 93.6403 88.5779 93.7992C88.6958 93.9557 88.8407 94.0749 89.0125 94.157C89.1869 94.2364 89.3843 94.2762 89.6049 94.2762C89.8049 94.2762 89.9703 94.2595 90.1011 94.2262C90.2344 94.1903 90.3408 94.148 90.4203 94.0993C90.4998 94.0505 90.5613 94.0031 90.6049 93.9569V92.9069H89.4933V92.1337H91.6627ZM100.617 89.4297V95.0301H99.5634V89.4297H100.617ZM102.356 89.4297V90.2644H97.844V89.4297H102.356ZM104.95 89.4297H106.985C107.411 89.4297 107.776 89.4938 108.081 89.622C108.386 89.7503 108.621 89.94 108.785 90.1913C108.949 90.4426 109.031 90.7516 109.031 91.1183C109.031 91.4081 108.98 91.6594 108.877 91.8722C108.775 92.085 108.63 92.2632 108.443 92.4068C108.258 92.5504 108.04 92.6633 107.789 92.7453L107.458 92.9146H105.662L105.654 92.0799H106.997C107.215 92.0799 107.395 92.0414 107.539 91.9645C107.683 91.8876 107.79 91.7812 107.862 91.6453C107.936 91.5094 107.974 91.3542 107.974 91.1798C107.974 90.9927 107.938 90.8311 107.866 90.6952C107.794 90.5567 107.685 90.4503 107.539 90.3759C107.393 90.3016 107.208 90.2644 106.985 90.2644H106.008V95.0301H104.95V89.4297ZM108.112 95.0301L106.816 92.5222L107.935 92.5184L109.247 94.9762V95.0301H108.112ZM114.964 89.4297H116.022V93.1492C116.022 93.5774 115.93 93.9377 115.745 94.23C115.561 94.5198 115.309 94.739 114.991 94.8878C114.673 95.0339 114.312 95.107 113.907 95.107C113.496 95.107 113.131 95.0339 112.811 94.8878C112.49 94.739 112.239 94.5198 112.057 94.23C111.875 93.9377 111.784 93.5774 111.784 93.1492V89.4297H112.841V93.1492C112.841 93.4108 112.885 93.6249 112.972 93.7915C113.059 93.9557 113.182 94.0775 113.341 94.157C113.5 94.2364 113.689 94.2762 113.907 94.2762C114.127 94.2762 114.316 94.2364 114.472 94.157C114.631 94.0775 114.753 93.9557 114.838 93.7915C114.922 93.6249 114.964 93.4108 114.964 93.1492V89.4297ZM121.848 93.5762C121.848 93.4685 121.831 93.3723 121.798 93.2877C121.767 93.2005 121.709 93.1223 121.625 93.053C121.543 92.9812 121.426 92.912 121.275 92.8453C121.126 92.7761 120.934 92.7043 120.698 92.6299C120.436 92.5479 120.192 92.4556 119.967 92.353C119.741 92.2504 119.542 92.1312 119.371 91.9953C119.201 91.8594 119.069 91.703 118.974 91.526C118.88 91.3465 118.832 91.1388 118.832 90.9029C118.832 90.6721 118.881 90.4618 118.978 90.2721C119.078 90.0823 119.219 89.9195 119.401 89.7836C119.583 89.6451 119.798 89.5387 120.044 89.4643C120.292 89.39 120.567 89.3528 120.867 89.3528C121.282 89.3528 121.641 89.4284 121.944 89.5797C122.249 89.731 122.485 89.9362 122.652 90.1952C122.818 90.4542 122.902 90.7452 122.902 91.0683H121.848C121.848 90.8939 121.811 90.7401 121.736 90.6067C121.664 90.4734 121.554 90.3683 121.405 90.2913C121.259 90.2144 121.075 90.1759 120.852 90.1759C120.636 90.1759 120.457 90.208 120.313 90.2721C120.172 90.3362 120.066 90.4234 119.994 90.5336C119.925 90.6439 119.89 90.767 119.89 90.9029C119.89 91.0055 119.914 91.0978 119.963 91.1798C120.012 91.2593 120.085 91.335 120.182 91.4068C120.28 91.476 120.4 91.5414 120.544 91.6029C120.69 91.6619 120.859 91.7209 121.052 91.7799C121.359 91.8722 121.628 91.9748 121.859 92.0876C122.093 92.2004 122.286 92.3286 122.44 92.4722C122.596 92.6158 122.713 92.7774 122.79 92.9569C122.87 93.1364 122.909 93.3402 122.909 93.5685C122.909 93.8095 122.862 94.0249 122.767 94.2147C122.672 94.4044 122.536 94.566 122.359 94.6993C122.182 94.8326 121.97 94.9339 121.721 95.0032C121.475 95.0724 121.199 95.107 120.894 95.107C120.622 95.107 120.353 95.0711 120.086 94.9993C119.822 94.925 119.582 94.8147 119.367 94.6685C119.151 94.5198 118.98 94.3326 118.851 94.107C118.723 93.8787 118.659 93.6121 118.659 93.3069H119.721C119.721 93.4838 119.749 93.6351 119.805 93.7608C119.864 93.8839 119.946 93.9852 120.051 94.0646C120.159 94.1416 120.285 94.198 120.428 94.2339C120.572 94.2698 120.727 94.2877 120.894 94.2877C121.109 94.2877 121.286 94.2582 121.425 94.1993C121.566 94.1377 121.671 94.0531 121.74 93.9454C121.812 93.8377 121.848 93.7146 121.848 93.5762ZM128.019 89.4297V95.0301H126.965V89.4297H128.019ZM129.758 89.4297V90.2644H125.246V89.4297H129.758ZM136.064 94.1993V95.0301H133.087V94.1993H136.064ZM133.41 89.4297V95.0301H132.352V89.4297H133.41ZM135.676 91.7414V92.553H133.087V91.7414H135.676ZM136.053 89.4297V90.2644H133.087V89.4297H136.053ZM140.363 95.0301H139.155L139.163 94.1993H140.363C140.688 94.1993 140.961 94.1275 141.182 93.9839C141.402 93.8377 141.569 93.6287 141.682 93.3569C141.795 93.0825 141.851 92.7543 141.851 92.3722V92.0837C141.851 91.7889 141.819 91.5286 141.755 91.3029C141.691 91.0773 141.596 90.8875 141.47 90.7337C141.347 90.5798 141.195 90.4631 141.013 90.3836C140.831 90.3041 140.622 90.2644 140.386 90.2644H139.132V89.4297H140.386C140.76 89.4297 141.101 89.4926 141.409 89.6182C141.719 89.7439 141.987 89.9246 142.213 90.1605C142.441 90.3939 142.615 90.6734 142.736 90.9991C142.859 91.3247 142.92 91.6888 142.92 92.0914V92.3722C142.92 92.7723 142.859 93.1364 142.736 93.4646C142.615 93.7903 142.441 94.0698 142.213 94.3031C141.987 94.5365 141.718 94.716 141.405 94.8416C141.092 94.9673 140.745 95.0301 140.363 95.0301ZM139.747 89.4297V95.0301H138.689V89.4297H139.747ZM152.494 93.5762C152.494 93.4685 152.478 93.3723 152.444 93.2877C152.414 93.2005 152.356 93.1223 152.271 93.053C152.189 92.9812 152.072 92.912 151.921 92.8453C151.772 92.7761 151.58 92.7043 151.344 92.6299C151.083 92.5479 150.839 92.4556 150.613 92.353C150.388 92.2504 150.189 92.1312 150.017 91.9953C149.848 91.8594 149.716 91.703 149.621 91.526C149.526 91.3465 149.479 91.1388 149.479 90.9029C149.479 90.6721 149.527 90.4618 149.625 90.2721C149.725 90.0823 149.866 89.9195 150.048 89.7836C150.23 89.6451 150.444 89.5387 150.69 89.4643C150.939 89.39 151.213 89.3528 151.513 89.3528C151.929 89.3528 152.288 89.4284 152.59 89.5797C152.896 89.731 153.132 89.9362 153.298 90.1952C153.465 90.4542 153.548 90.7452 153.548 91.0683H152.494C152.494 90.8939 152.457 90.7401 152.383 90.6067C152.311 90.4734 152.201 90.3683 152.052 90.2913C151.906 90.2144 151.721 90.1759 151.498 90.1759C151.283 90.1759 151.103 90.208 150.96 90.2721C150.819 90.3362 150.712 90.4234 150.64 90.5336C150.571 90.6439 150.536 90.767 150.536 90.9029C150.536 91.0055 150.561 91.0978 150.61 91.1798C150.658 91.2593 150.731 91.335 150.829 91.4068C150.926 91.476 151.047 91.5414 151.19 91.6029C151.337 91.6619 151.506 91.7209 151.698 91.7799C152.006 91.8722 152.275 91.9748 152.506 92.0876C152.739 92.2004 152.933 92.3286 153.087 92.4722C153.243 92.6158 153.36 92.7774 153.437 92.9569C153.516 93.1364 153.556 93.3402 153.556 93.5685C153.556 93.8095 153.508 94.0249 153.414 94.2147C153.319 94.4044 153.183 94.566 153.006 94.6993C152.829 94.8326 152.616 94.9339 152.367 95.0032C152.121 95.0724 151.846 95.107 151.54 95.107C151.269 95.107 150.999 95.0711 150.733 94.9993C150.469 94.925 150.229 94.8147 150.013 94.6685C149.798 94.5198 149.626 94.3326 149.498 94.107C149.37 93.8787 149.306 93.6121 149.306 93.3069H150.367C150.367 93.4838 150.395 93.6351 150.452 93.7608C150.511 93.8839 150.593 93.9852 150.698 94.0646C150.806 94.1416 150.931 94.198 151.075 94.2339C151.219 94.2698 151.374 94.2877 151.54 94.2877C151.756 94.2877 151.933 94.2582 152.071 94.1993C152.212 94.1377 152.317 94.0531 152.387 93.9454C152.458 93.8377 152.494 93.7146 152.494 93.5762ZM158.489 90.2798L156.893 95.0301H155.773L157.866 89.4297H158.581L158.489 90.2798ZM159.824 95.0301L158.22 90.2798L158.124 89.4297H158.843L160.947 95.0301H159.824ZM159.751 92.9492V93.7839H156.747V92.9492H159.751ZM165.068 93.9339L166.465 89.4297H167.638L165.661 95.0301H164.88L165.068 93.9339ZM163.78 89.4297L165.168 93.9339L165.368 95.0301H164.58L162.611 89.4297H163.78ZM171.232 89.4297V95.0301H170.175V89.4297H171.232ZM178.766 89.4297V95.0301H177.704L175.323 91.1452V95.0301H174.265V89.4297H175.323L177.712 93.3184V89.4297H178.766ZM186.103 92.1337V94.3147C186.021 94.4198 185.891 94.5339 185.714 94.657C185.54 94.7801 185.312 94.8865 185.029 94.9762C184.747 95.0634 184.401 95.107 183.991 95.107C183.635 95.107 183.309 95.048 183.014 94.9301C182.719 94.8096 182.465 94.6339 182.252 94.4031C182.04 94.1723 181.875 93.8903 181.76 93.5569C181.645 93.2236 181.587 92.8428 181.587 92.4145V92.0453C181.587 91.617 181.641 91.2363 181.749 90.9029C181.859 90.5695 182.015 90.2875 182.218 90.0567C182.423 89.8259 182.668 89.6503 182.952 89.5297C183.24 89.4092 183.56 89.349 183.914 89.349C184.388 89.349 184.778 89.4272 185.083 89.5836C185.391 89.74 185.627 89.9554 185.791 90.2298C185.955 90.5016 186.058 90.8144 186.099 91.1683H185.068C185.04 90.9734 184.983 90.8029 184.899 90.6567C184.814 90.508 184.694 90.3926 184.537 90.3106C184.383 90.2259 184.183 90.1836 183.937 90.1836C183.729 90.1836 183.546 90.2247 183.387 90.3067C183.228 90.3888 183.095 90.508 182.987 90.6644C182.879 90.8208 182.797 91.0144 182.741 91.2452C182.687 91.476 182.66 91.7401 182.66 92.0376V92.4145C182.66 92.7146 182.691 92.9812 182.752 93.2146C182.814 93.4454 182.902 93.6403 183.018 93.7992C183.136 93.9557 183.281 94.0749 183.452 94.157C183.627 94.2364 183.824 94.2762 184.045 94.2762C184.245 94.2762 184.41 94.2595 184.541 94.2262C184.674 94.1903 184.781 94.148 184.86 94.0993C184.94 94.0505 185.001 94.0031 185.045 93.9569V92.9069H183.933V92.1337H186.103Z" fill="#01BE62"/>
<path d="M23.5356 0.472424C20.6011 1.50989 17.9926 4.11837 16.1845 7.79397C14.7913 10.5803 14.2577 12.8034 14.0502 16.568L13.8724 19.71L10.6414 19.8582C7.79581 20.0064 7.20297 20.125 5.51339 20.955C3.40882 21.9924 1.92672 23.5634 0.859614 25.9052C0.177851 27.3576 0.177851 27.3872 0.0889256 44.6388L0 61.8904L15.2063 61.8015C29.049 61.7422 30.5311 61.6829 31.8057 61.179C33.7325 60.4676 34.7106 59.2523 34.7106 57.5923C34.7106 54.9542 33.3175 54.1242 25.1956 52.1086C16.1845 49.8854 13.0721 47.5734 12.1235 42.3267C11.7085 40.2222 12.0939 37.673 13.1017 35.598C14.4949 32.7524 17.7851 30.3811 22.1128 29.1065C23.6246 28.6618 25.7884 28.5729 37.2302 28.4247C49.3241 28.2765 50.6876 28.1876 51.399 27.7133C54.1557 25.9052 53.8889 21.8739 50.9247 20.4214C49.7687 19.8582 49.1166 19.7989 44.5814 19.7989H39.5423L39.3644 16.5976C39.0383 10.9656 37.4673 6.964 34.3253 3.58482C32.0725 1.18383 30.0569 0.176006 27.2112 0.0277977C25.6699 -0.0611267 24.662 0.0574379 23.5356 0.472424ZM30.2051 3.05127C34.5921 5.09656 37.6452 11.0249 37.6748 17.4869V19.7989H26.7073H15.7398V17.4869C15.7695 10.9953 18.8226 5.09656 23.2096 3.05127C25.3734 2.04345 28.0412 2.04345 30.2051 3.05127Z" fill="#01BE62"/>
<path d="M25.2252 35.9243C22.3796 36.5468 21.105 37.6732 20.8678 39.7185C20.7493 40.8449 20.8382 41.171 21.5496 42.0009C22.6464 43.3348 23.9506 43.8684 29.0786 45.143C34.2363 46.3879 35.8666 46.9215 37.823 47.8997C40.1647 49.0557 41.7061 50.4785 42.625 52.3459C43.366 53.828 43.4549 54.3616 43.4549 56.8515C43.4549 59.2821 43.3364 59.9046 42.6546 61.3867C41.1429 64.6177 37.7341 67.1076 33.1989 68.2933C31.5686 68.7379 29.1676 68.8268 16.2734 68.9158L1.21528 69.0343L0.622447 69.805C-0.1186 70.7832 -0.1186 71.4057 0.652089 72.3839L1.24493 73.1545H23.2985C44.8185 73.1545 45.4113 73.1545 46.9823 72.5321C49.1462 71.7317 51.3693 69.6864 52.4068 67.5819L53.2368 65.8923L53.3257 50.686L53.4146 35.5094L40.1351 35.539C30.9164 35.539 26.3516 35.6576 25.2252 35.9243Z" fill="#01BE62"/>
</svg>
