<svg width="191" height="74" viewBox="0 0 191 74" fill="none" xmlns="http://www.w3.org/2000/svg">
<path d="M118.551 43.3171H120.579L125.348 54.9664H125.513L130.282 43.3171H132.311V57.3511H130.721V46.6885H130.584L126.198 57.3511H124.663L120.277 46.6885H120.14V57.3511H118.551V43.3171ZM138.596 57.5978C137.929 57.5978 137.324 57.4721 136.78 57.2209C136.236 56.965 135.805 56.5973 135.485 56.1176C135.165 55.6334 135.005 55.0486 135.005 54.3634C135.005 53.7603 135.124 53.2715 135.362 52.8969C135.599 52.5177 135.917 52.2208 136.314 52.0061C136.712 51.7914 137.15 51.6315 137.63 51.5264C138.114 51.4168 138.601 51.33 139.089 51.266C139.729 51.1838 140.247 51.1221 140.645 51.081C141.047 51.0353 141.339 50.9599 141.522 50.8549C141.709 50.7498 141.803 50.5671 141.803 50.3067V50.2518C141.803 49.5757 141.618 49.0504 141.248 48.6758C140.882 48.3012 140.327 48.1139 139.583 48.1139C138.811 48.1139 138.205 48.2829 137.767 48.6209C137.328 48.959 137.02 49.3199 136.842 49.7036L135.307 49.1554C135.581 48.5159 135.946 48.0179 136.403 47.6616C136.865 47.3007 137.367 47.0494 137.911 46.9078C138.459 46.7616 138.998 46.6885 139.528 46.6885C139.866 46.6885 140.254 46.7296 140.693 46.8119C141.136 46.8895 141.563 47.0517 141.974 47.2984C142.39 47.5451 142.735 47.9174 143.009 48.4154C143.283 48.9133 143.42 49.5803 143.42 50.4163V57.3511H141.803V55.9257H141.721C141.611 56.1542 141.428 56.3986 141.173 56.659C140.917 56.9194 140.576 57.1409 140.152 57.3237C139.727 57.5064 139.208 57.5978 138.596 57.5978ZM138.843 56.145C139.482 56.145 140.021 56.0194 140.46 55.7681C140.903 55.5169 141.237 55.1925 141.46 54.7951C141.689 54.3976 141.803 53.9796 141.803 53.5411V52.0609C141.734 52.1431 141.584 52.2185 141.351 52.287C141.122 52.351 140.857 52.4081 140.556 52.4584C140.259 52.504 139.969 52.5452 139.686 52.5817C139.407 52.6137 139.181 52.6411 139.007 52.6639C138.587 52.7188 138.194 52.8078 137.829 52.9312C137.468 53.05 137.175 53.2304 136.951 53.4725C136.732 53.7101 136.622 54.0344 136.622 54.4456C136.622 55.0075 136.83 55.4324 137.246 55.7202C137.666 56.0034 138.199 56.145 138.843 56.145ZM146.372 57.3511V46.8256H147.934V48.4154H148.044C148.236 47.8946 148.583 47.472 149.086 47.1476C149.588 46.8233 150.155 46.6611 150.785 46.6611C150.904 46.6611 151.052 46.6634 151.23 46.668C151.409 46.6725 151.543 46.6794 151.635 46.6885V48.3331C151.58 48.3194 151.454 48.2989 151.258 48.2715C151.066 48.2395 150.863 48.2235 150.648 48.2235C150.136 48.2235 149.679 48.3308 149.277 48.5456C148.88 48.7557 148.565 49.0481 148.332 49.4227C148.103 49.7927 147.989 50.2153 147.989 50.6904V57.3511H146.372ZM158.789 46.8256V48.1961H153.334V46.8256H158.789ZM154.924 44.3038H156.541V54.336C156.541 54.7928 156.607 55.1354 156.74 55.3638C156.877 55.5877 157.05 55.7384 157.261 55.8161C157.475 55.8892 157.701 55.9257 157.939 55.9257C158.117 55.9257 158.263 55.9166 158.378 55.8983C158.492 55.8755 158.583 55.8572 158.652 55.8435L158.981 57.2963C158.871 57.3374 158.718 57.3785 158.521 57.4196C158.325 57.4653 158.076 57.4881 157.775 57.4881C157.318 57.4881 156.87 57.3899 156.431 57.1935C155.997 56.997 155.637 56.6978 155.349 56.2958C155.066 55.8938 154.924 55.3867 154.924 54.7745V44.3038Z" fill="#036EAC"/>
<path d="M77.3075 16.9395H71.1622L71.4179 33.1421V34.8904L77.3075 27.8556L77.1964 25.5654L77.3075 16.9395Z" fill="#069321"/>
<path d="M106.429 4.85718L98.0267 13.3942H100.282C99.9223 13.5054 98.7341 16.7587 98.7341 16.7587L93.8312 29.9874C93.3365 31.3257 92.9418 32.4458 92.6485 33.3449C92.3553 34.2454 92.1107 35.0834 91.9148 35.8589H91.673C91.7424 35.0487 91.7994 34.1635 91.8453 33.2018C91.8912 32.2401 91.9259 31.1172 91.9495 29.8359L92.1218 16.7587H84.0935L78.5513 30.5113C78.3206 31.1186 78.0566 31.8871 77.7578 32.814C77.6118 33.2671 77.4618 33.741 77.3075 34.2343L75.3883 40.7354H79.7089L85.0955 26.8146C85.4179 25.9822 85.7375 25.1136 86.053 24.2075C86.3698 23.3028 86.7061 22.2925 87.0633 21.1794H87.3565C87.2648 22.2147 87.1925 23.3028 87.1411 24.4438C87.0897 25.5861 87.0522 26.7924 87.0285 28.0626L86.8215 40.7354H94.8498L105.209 16.7573L106.412 13.3928H108.463L106.429 4.85718ZM100.32 13.3942H106.237C105.27 13.4178 100.594 13.5234 100.32 13.3942Z" fill="#069321"/>
<path d="M65.8508 25.7475C65.8508 28.795 65.3005 31.4286 64.2001 33.6484C63.0996 35.8682 61.59 37.58 59.6712 38.784C57.7524 39.9879 55.5608 40.5899 53.0965 40.5899C50.6322 40.5899 48.4406 39.9879 46.5219 38.784C44.6031 37.58 43.0934 35.8682 41.993 33.6484C40.8925 31.4286 40.3422 28.795 40.3422 25.7475C40.3422 22.7 40.8925 20.0664 41.993 17.8466C43.0934 15.6269 44.6031 13.915 46.5219 12.7111C48.4406 11.5071 50.6322 10.9052 53.0965 10.9052C55.5608 10.9052 57.7524 11.5071 59.6712 12.7111C61.59 13.915 63.0996 15.6269 64.2001 17.8466C65.3005 20.0664 65.8508 22.7 65.8508 25.7475ZM62.4647 25.7475C62.4647 23.2456 62.0461 21.134 61.209 19.4127C60.3813 17.6914 59.2573 16.3887 57.837 15.5046C56.4262 14.6204 54.846 14.1784 53.0965 14.1784C51.347 14.1784 49.7622 14.6204 48.3419 15.5046C46.931 16.3887 45.807 17.6914 44.9699 19.4127C44.1422 21.134 43.7283 23.2456 43.7283 25.7475C43.7283 28.2495 44.1422 30.3611 44.9699 32.0823C45.807 33.8036 46.931 35.1063 48.3419 35.9904C49.7622 36.8746 51.347 37.3166 53.0965 37.3166C54.846 37.3166 56.4262 36.8746 57.837 35.9904C59.2573 35.1063 60.3813 33.8036 61.209 32.0823C62.0461 30.3611 62.4647 28.2495 62.4647 25.7475Z" fill="#069321"/>
<path d="M173.137 66.6927C172.638 65.2446 172.173 63.8716 171.687 62.5055C171.561 62.1497 171.563 61.8315 171.687 61.4743C173.22 57.0578 174.75 52.6399 176.252 48.2123C176.434 47.6758 176.683 47.4994 177.247 47.5133C178.972 47.5536 180.698 47.5299 182.424 47.5258C183.397 47.5244 184.028 46.9574 184.022 46.1027C184.017 45.2689 183.359 44.6866 182.402 44.6852C179.981 44.681 177.56 44.713 175.14 44.6616C174.54 44.6491 174.386 44.9131 174.227 45.3745C172.656 49.9675 171.062 54.5521 169.502 59.1493C169.315 59.701 169.076 59.8886 168.473 59.8859C163.139 59.8567 157.805 59.8678 152.471 59.8692C151.677 59.8692 151.107 60.2722 150.947 60.9254C150.782 61.6008 151.082 62.247 151.69 62.568C151.942 62.7014 152.205 62.7056 152.474 62.7056C157.695 62.707 162.918 62.7084 168.139 62.7084C168.701 62.7084 169.084 63.0836 169.08 63.62C169.077 63.9397 168.835 63.8243 168.692 63.8257C167.572 63.8368 166.452 63.834 165.33 63.8354C162.013 63.8354 158.697 63.8299 155.38 63.8396C154.198 63.8438 153.485 64.7999 153.903 65.8033C154.164 66.4314 154.662 66.7024 155.338 66.701C160.269 66.6954 165.2 66.6955 170.129 66.6941C171.094 66.6927 172.055 66.6927 173.137 66.6927Z" fill="#069321"/>
<path d="M156.05 69.6847C156.06 71.3649 157.753 73.2549 159.412 73.4411C160.738 73.5898 161.596 72.6532 161.405 71.269C161.191 69.7153 159.793 68.2144 158.256 67.8892C156.971 67.6182 156.042 68.3742 156.05 69.6847Z" fill="#F70B0B"/>
<path d="M165.692 69.633C165.686 71.3146 167.286 73.181 168.944 73.4284C170.246 73.6229 171.126 72.8058 171.037 71.4869C170.925 69.8457 169.515 68.2419 167.879 67.8945C166.603 67.6249 165.697 68.3462 165.692 69.633Z" fill="#F70B0B"/>
<path d="M183.836 51.2778C185.827 51.2778 187.82 51.2792 189.812 51.2764C190.498 51.275 190.762 51.0416 190.762 50.4537C190.764 49.8714 190.494 49.6338 189.803 49.6338C185.797 49.6338 181.79 49.6338 177.784 49.6407C177.045 49.6421 176.726 50.0715 176.91 50.7636C177.025 51.1986 177.325 51.2792 177.725 51.2778C179.761 51.2667 181.799 51.2722 183.835 51.2722C183.836 51.2736 183.836 51.2764 183.836 51.2778Z" fill="#F70B0B"/>
<path d="M182.352 53.1235C180.492 53.1235 178.633 53.1221 176.773 53.1249C176.091 53.1262 175.817 53.3722 175.826 53.9559C175.833 54.5382 176.095 54.7578 176.8 54.7592C180.496 54.7605 184.192 54.7619 187.888 54.7605C188.546 54.7605 188.856 54.4868 188.849 53.9295C188.84 53.3625 188.56 53.1262 187.863 53.1249C186.025 53.1207 184.188 53.1221 182.352 53.1235Z" fill="#F70B0B"/>
<path d="M180.673 56.6003C178.973 56.6003 177.274 56.5975 175.574 56.6017C174.903 56.6031 174.62 56.8574 174.626 57.4299C174.633 57.9955 174.918 58.2401 175.596 58.2401C178.996 58.2415 182.395 58.2415 185.794 58.2387C186.47 58.2387 186.736 57.9955 186.732 57.4063C186.728 56.8171 186.477 56.6017 185.772 56.6003C184.072 56.5989 182.373 56.6003 180.673 56.6003Z" fill="#F70B0B"/>
<path d="M179.057 60.0801C177.468 60.0801 175.881 60.094 174.294 60.0732C173.698 60.0649 173.407 60.3247 173.412 60.9001C173.416 61.4671 173.699 61.7395 174.294 61.7367C177.447 61.7242 180.601 61.7256 183.754 61.7353C184.365 61.7367 184.607 61.4323 184.596 60.8681C184.586 60.3247 184.321 60.069 183.753 60.0746C182.188 60.0926 180.621 60.0815 179.057 60.0815C179.057 60.0829 179.057 60.0815 179.057 60.0801Z" fill="#F70B0B"/>
<path d="M44.6591 11.5652C47.8528 11.5652 50.4417 8.97623 50.4417 5.78259C50.4417 2.58895 47.8528 0 44.6591 0C41.4655 0 38.8765 2.58895 38.8765 5.78259C38.8765 8.97623 41.4655 11.5652 44.6591 11.5652Z" fill="#FCCC00"/>
<path d="M43.5126 4.10682C44.0295 4.10682 44.5465 4.11237 45.0635 4.10403C45.3609 4.09987 45.6374 4.15545 45.8987 3.84971C46.103 3.61068 46.5213 3.74827 46.7881 3.87335C47.2787 4.10404 47.7776 4.12211 48.2932 4.1096C48.4391 4.10543 48.6489 4.05401 48.6684 4.27914C48.6851 4.48343 48.5489 4.62935 48.3474 4.68772C48.2737 4.70856 48.1917 4.69466 48.1139 4.703C47.7929 4.73774 47.3607 4.54458 47.1731 4.80167C46.8479 5.24638 46.531 5.74389 46.4657 6.31645C46.3239 7.56025 46.2072 8.80821 46.0988 10.0562C46.0738 10.3411 45.9376 10.4383 45.6875 10.4578C45.3678 10.4814 45.069 10.4119 44.7744 10.2883C44.4798 10.1632 44.3853 9.97279 44.4645 9.65733C44.6368 8.97498 44.7869 8.28569 44.9467 7.60056C44.9704 7.49772 45.0468 7.37125 44.9273 7.30455C44.8105 7.23923 44.7341 7.36986 44.6549 7.43935C44.1477 7.88266 43.6474 8.33293 43.1359 8.77069C42.6885 9.15286 42.2729 8.85407 41.8838 8.65534C41.5475 8.48302 41.3557 8.21897 41.4641 7.7701C41.6823 6.87234 41.9269 5.98153 42.2007 5.10046C42.3035 4.76831 42.2076 4.67243 41.8908 4.70161C41.7671 4.71273 41.6406 4.70717 41.5155 4.70161C41.3363 4.69327 41.0764 4.74608 41.0847 4.47926C41.0903 4.24718 41.2709 4.10265 41.5392 4.10543C42.1965 4.11098 42.8538 4.10682 43.5126 4.10682ZM42.8108 7.9049C43.0262 7.95354 43.1276 7.8368 43.2374 7.75898C43.8489 7.32261 44.4464 6.86817 45.0107 6.37066C45.2205 6.18721 45.3386 5.98292 45.3942 5.70081C45.6027 4.65575 45.6138 4.67382 44.5201 4.65297C44.1463 4.64602 43.9392 4.7711 43.7293 5.08656C43.1651 5.93985 43.0234 6.90987 42.8108 7.9049Z" fill="#F70B0B"/>
<path d="M43.475 1.3732C43.4931 1.31345 43.5014 1.21338 43.5501 1.14112C43.9739 0.515746 45.0246 0.425421 45.5276 0.982696C46.0766 1.59139 46.4754 2.29736 46.7909 3.05197C46.8632 3.2243 46.9035 3.38967 46.6867 3.48695C46.4671 3.58562 46.3448 3.47584 46.242 3.28406C46.0279 2.88382 45.7528 2.52527 45.4595 2.17785C45.2608 1.94159 45.0954 1.9277 44.8773 2.12364C44.6841 2.29875 44.4826 2.43078 44.213 2.25011C43.8906 2.03471 43.5181 1.86794 43.475 1.3732Z" fill="#F70B0B"/>
<path d="M35.7857 15.3118C35.7871 17.6812 35.7982 20.0507 35.7732 22.4188C35.769 22.737 35.5759 23.0539 35.4703 23.3721C35.1951 23.1998 34.8588 23.0803 34.6559 22.8454C32.9715 20.8859 30.9606 19.3767 28.6273 18.2677C28.3424 18.1329 28.0589 17.6812 28.0395 17.3602C27.9672 16.2401 27.988 15.1103 28.02 13.986C28.0353 13.4593 27.831 13.1841 27.3571 12.984C24.4999 11.7708 21.6579 10.5214 18.7923 9.32767C18.4602 9.1887 17.9682 9.19426 17.6333 9.33323C14.7941 10.5145 11.9841 11.7624 9.14353 12.9395C8.51677 13.1994 8.38753 13.5718 8.43478 14.168C8.69466 17.4533 11.3254 19.8297 14.7788 19.852C17.2664 19.8686 19.754 19.8534 22.2416 19.8561C29.3903 19.8603 35.2674 25.6276 35.744 32.7791C35.8747 34.7441 35.2173 35.8406 33.8471 37.0302C28.8246 41.3883 23.8926 45.8507 18.9521 50.3034C18.3851 50.8134 18.0307 50.8064 17.4804 50.3117C13.1306 46.3955 8.75719 42.5029 4.3935 38.602C3.31369 37.6361 2.21165 36.6925 1.17492 35.6822C0.898367 35.4126 0.68296 34.9359 0.678791 34.551C0.63849 31.5005 0.646828 28.4501 0.670453 25.4011C0.673233 25.0954 0.877522 24.791 0.988699 24.4853C1.25413 24.6298 1.57933 24.7174 1.77389 24.9272C3.4874 26.7713 5.43995 28.2778 7.79135 29.2131C8.34028 29.4313 8.51121 29.7634 8.432 30.2943C8.28052 31.3157 8.65435 32.03 9.46039 32.7221C12.2398 35.1096 14.9484 37.5805 17.6639 40.0417C18.1044 40.4406 18.4101 40.3614 18.7993 40.0111C21.6329 37.4624 24.4846 34.9317 27.3001 32.3608C27.5114 32.169 27.6364 31.6659 27.5447 31.3935C26.8054 29.2117 24.4915 27.5996 22.1596 27.5802C19.2593 27.5565 16.3534 27.633 13.4572 27.4996C6.7977 27.1924 1.17631 21.6419 0.787189 15.0172C0.649607 12.688 0.707975 10.3463 0.648217 8.01161C0.63432 7.47379 0.848339 7.20558 1.33335 7.03325C6.79492 5.09738 12.2509 3.14484 17.7181 1.22565C18.0446 1.1103 18.488 1.13531 18.8215 1.25344C24.1191 3.11982 29.4 5.03485 34.7073 6.87761C35.5689 7.1764 35.8316 7.59887 35.8093 8.47439C35.7468 10.7493 35.7843 13.0313 35.7857 15.3118Z" fill="#069321"/>
<path d="M138.078 19.602C138.078 16.0722 136.818 13.4734 134.298 11.8058C131.779 10.1395 127.847 9.30566 122.505 9.30566H111.286L102.09 51.307L100.316 56.5754L111.236 55.6873L112.162 51.307L116.335 33.4561C117.511 33.5103 118.547 33.5492 119.446 33.577C120.346 33.6034 121.107 33.6173 121.73 33.6173C126.823 33.6173 130.821 32.3693 133.723 29.8734C136.626 27.3761 138.078 23.9532 138.078 19.602ZM126.164 24.8301C124.811 25.8377 122.914 26.3408 120.475 26.3408H117.804L119.913 16.1514H122.265C124.188 16.1514 125.657 16.535 126.673 17.3021C127.687 18.0692 128.196 19.1837 128.196 20.6443C128.195 22.4287 127.518 23.824 126.164 24.8301Z" fill="#F70B0B"/>
<path d="M144.8 18.3555L130.832 41.4497H137.467L140.293 36.5246H149.556L150.172 41.4497H156.441L152.633 18.3555H144.8ZM142.721 32.1692L147.959 22.8734L149.09 32.1692H142.721Z" fill="#F70B0B"/>
<path d="M176.494 18.3554L171.522 25.0024C171.366 25.2192 171.134 25.568 170.824 26.0502C170.514 26.5325 170.17 27.0828 169.793 27.6998C169.659 27.1801 169.519 26.627 169.369 26.0419C169.219 25.4568 169.133 25.1316 169.111 25.0663L166.9 18.354H160.015L165.768 32.7209L164.006 41.4483H170.275L172.171 32.7209L183.861 18.354H176.494V18.3554Z" fill="#F70B0B"/>
</svg>
