<svg width="56" height="56" viewBox="0 0 56 56" fill="none" xmlns="http://www.w3.org/2000/svg">
<circle cx="28" cy="28" r="28" fill="white" fill-opacity="0.61"/>
<path fill-rule="evenodd" clip-rule="evenodd" d="M21.6689 20.76C21.696 20.5329 21.7756 20.3153 21.9014 20.1244C22.0273 19.9335 22.196 19.7746 22.394 19.6604C22.5921 19.5461 22.8141 19.4796 23.0423 19.4662C23.2706 19.4527 23.4989 19.4927 23.7089 19.583C24.7709 20.037 27.1509 21.116 30.1709 22.859C33.1919 24.603 35.3169 26.126 36.2399 26.817C37.0279 27.408 37.0299 28.58 36.2409 29.173C35.3269 29.86 33.2279 31.363 30.1709 33.129C27.1109 34.895 24.7589 35.961 23.7069 36.409C22.8009 36.796 21.7869 36.209 21.6689 35.232C21.5309 34.09 21.2729 31.497 21.2729 27.995C21.2729 24.495 21.5299 21.903 21.6689 20.76Z" fill="#01BE62"/>
</svg>
